<svg id="Camada_1" data-name="Camada 1" xmlns="http://www.w3.org/2000/svg" viewBox="0 0 16.73 16.73"><defs><style>.cls-1{fill:#4ca22f;}</style></defs><title>icon-confirm</title><path class="cls-1" d="M298.15,754.62a.5.5,0,0,1-.38-.83l5.8-6.74a.5.5,0,0,1,.75.65l-5.79,6.75A.52.52,0,0,1,298.15,754.62Z" transform="translate(-290.69 -742.37)"/><path class="cls-1" d="M298.15,754.62a.5.5,0,0,1-.37-.16l-3.8-4.1a.49.49,0,0,1,0-.7.5.5,0,0,1,.71,0l3.81,4.1a.51.51,0,0,1,0,.71A.5.5,0,0,1,298.15,754.62Z" transform="translate(-290.69 -742.37)"/><path class="cls-1" d="M299.05,759.09a8.36,8.36,0,1,1,8.36-8.36A8.37,8.37,0,0,1,299.05,759.09Zm0-15.72a7.36,7.36,0,1,0,7.36,7.36A7.37,7.37,0,0,0,299.05,743.37Z" transform="translate(-290.69 -742.37)"/></svg>