<svg id="Camada_1" data-name="Camada 1" xmlns="http://www.w3.org/2000/svg" viewBox="0 0 16.88 16.88"><defs><style>.cls-1{fill:#e6332a;}.cls-2{fill:#fff;}</style></defs><title>icon-delete-fill</title><rect class="cls-1" width="16.88" height="16.88" rx="2.54"/><path class="cls-2" d="M301.57,752.22a.5.5,0,0,1-.36-.14.51.51,0,0,1,0-.71l6.38-6.37a.5.5,0,0,1,.71,0,.5.5,0,0,1,0,.7l-6.38,6.38A.47.47,0,0,1,301.57,752.22Z" transform="translate(-296.32 -740.1)"/><path class="cls-2" d="M307.94,752.22a.49.49,0,0,1-.35-.14l-6.38-6.38a.5.5,0,0,1,0-.7.5.5,0,0,1,.71,0l6.38,6.37a.51.51,0,0,1,0,.71A.5.5,0,0,1,307.94,752.22Z" transform="translate(-296.32 -740.1)"/><path class="cls-2" d="M304.76,755.35a6.82,6.82,0,1,1,6.81-6.81A6.83,6.83,0,0,1,304.76,755.35Zm0-12.63a5.82,5.82,0,1,0,5.81,5.82A5.83,5.83,0,0,0,304.76,742.72Z" transform="translate(-296.32 -740.1)"/></svg>