<svg id="Camada_1" data-name="Camada 1" xmlns="http://www.w3.org/2000/svg" viewBox="0 0 17.3 15.46"><defs><style>.cls-1{fill:#fff;}</style></defs><title>icon-warning</title><path class="cls-1" d="M10.76,532.07H-3a1.74,1.74,0,0,1-1.53-.89,1.75,1.75,0,0,1,0-1.77L2.34,517.5a1.77,1.77,0,0,1,1.54-.89h0a1.76,1.76,0,0,1,1.53.89l6.88,11.91a1.78,1.78,0,0,1-1.53,2.66ZM3.21,518l-6.88,11.91a.76.76,0,0,0,0,.77.75.75,0,0,0,.67.39H10.76a.75.75,0,0,0,.66-.39.76.76,0,0,0,0-.77L4.54,518a.75.75,0,0,0-.66-.39h0a.77.77,0,0,0-.67.39Z" transform="translate(4.77 -516.61)"/><rect class="cls-1" x="8.15" y="4.16" width="1" height="5.85"/><path class="cls-1" d="M3.88,529.47a1,1,0,1,1,0-1.93,1,1,0,0,1,0,1.93Zm0-1a0,0,0,0,0,0,0Z" transform="translate(4.77 -516.61)"/></svg>