<svg id="Camada_1" data-name="Camada 1" xmlns="http://www.w3.org/2000/svg" viewBox="0 0 16.61 16.6"><defs><style>.cls-1{fill:#2b4748;}</style></defs><title>icon-edit</title><path class="cls-1" d="M462,700.07a.47.47,0,0,1-.35-.15L457.69,696a.5.5,0,0,1,0-.71l8.44-8.44a.5.5,0,0,1,.7,0l4,4a.51.51,0,0,1,0,.7l-8.44,8.44A.49.49,0,0,1,462,700.07Zm-3.24-4.45,3.24,3.24,7.74-7.73-3.25-3.25Z" transform="translate(-455.55 -685.46)"/><path class="cls-1" d="M470.43,691.63a.5.5,0,0,1-.35-.15l-3.95-4a.47.47,0,0,1-.15-.35.49.49,0,0,1,.15-.36l.94-.94a1.55,1.55,0,0,1,2.13,0l2.53,2.53a1.52,1.52,0,0,1,0,2.13h0l-.94.94A.51.51,0,0,1,470.43,691.63Zm-3.24-4.45,3.24,3.24.59-.58a.51.51,0,0,0,0-.72l-2.53-2.53a.53.53,0,0,0-.72,0Zm4.18,3h0Z" transform="translate(-455.55 -685.46)"/><path class="cls-1" d="M456.05,702.06a.49.49,0,0,1-.35-.15.5.5,0,0,1-.12-.51l2-6a.51.51,0,0,1,.83-.19l3.95,4a.51.51,0,0,1,.13.47.47.47,0,0,1-.32.36l-6,2A.41.41,0,0,1,456.05,702.06Zm2.22-5.53-1.42,4.23,4.23-1.42Z" transform="translate(-455.55 -685.46)"/><path class="cls-1" d="M460.82,695.93a.5.5,0,0,1-.35-.15.48.48,0,0,1,0-.7l5.55-5.56a.51.51,0,0,1,.71,0,.5.5,0,0,1,0,.71l-5.55,5.55A.51.51,0,0,1,460.82,695.93Z" transform="translate(-455.55 -685.46)"/><path class="cls-1" d="M462.18,697.29a.47.47,0,0,1-.35-.15.5.5,0,0,1,0-.71l5.55-5.55a.5.5,0,0,1,.71,0,.51.51,0,0,1,0,.71l-5.56,5.55A.47.47,0,0,1,462.18,697.29Z" transform="translate(-455.55 -685.46)"/><path class="cls-1" d="M459.09,701a.51.51,0,0,1-.36-.15l-2-2a.5.5,0,0,1,0-.71.51.51,0,0,1,.71,0l2,2a.48.48,0,0,1,0,.7A.5.5,0,0,1,459.09,701Z" transform="translate(-455.55 -685.46)"/></svg>