<svg id="Camada_1" data-name="Camada 1" xmlns="http://www.w3.org/2000/svg" viewBox="0 0 16.88 16.88"><defs><style>.cls-1{fill:#46962b;}.cls-2{fill:#fff;}</style></defs><title>icon-confirm-fill</title><rect class="cls-1" width="16.88" height="16.88" rx="2.54"/><path class="cls-2" d="M304,751.76a.49.49,0,0,1-.32-.12.5.5,0,0,1,0-.71l4.65-5.42a.5.5,0,0,1,.76.66l-4.66,5.42A.52.52,0,0,1,304,751.76Z" transform="translate(-296.32 -740.1)"/><path class="cls-2" d="M304,751.76a.48.48,0,0,1-.36-.16l-3.06-3.29a.5.5,0,0,1,0-.71.48.48,0,0,1,.7,0l3.06,3.29a.5.5,0,0,1,0,.71A.47.47,0,0,1,304,751.76Z" transform="translate(-296.32 -740.1)"/><path class="cls-2" d="M304.76,755.35a6.82,6.82,0,1,1,6.81-6.81A6.83,6.83,0,0,1,304.76,755.35Zm0-12.63a5.82,5.82,0,1,0,5.81,5.82A5.83,5.83,0,0,0,304.76,742.72Z" transform="translate(-296.32 -740.1)"/></svg>