<svg id="Camada_1" data-name="Camada 1" xmlns="http://www.w3.org/2000/svg" viewBox="0 0 2000 730"><defs><style>.cls-1{fill:#fff;}.cls-2{fill:#e6eced;}.cls-3{fill:#cfd9db;}.cls-4{fill:#c0e1d7;}.cls-5{fill:#9fd2c1;}.cls-6{fill:#48b69c;}.cls-11,.cls-7{fill:none;}.cls-7{stroke:#fff;stroke-miterlimit:10;stroke-width:0.77px;}.cls-8{fill:#f7f7db;}.cls-9{fill:#fbfbed;}.cls-10{fill:#2b4748;}.cls-11{stroke:#2b4748;stroke-linecap:round;stroke-linejoin:round;stroke-width:1.3px;}.cls-12{fill:#00a583;}.cls-13{fill:#d6ebe2;}.cls-14,.cls-17{fill:#f2f2e5;}.cls-15{fill:#d3d800;}.cls-16{fill:#eaebd0;}.cls-16,.cls-19,.cls-21{opacity:0.3;}.cls-17,.cls-18{opacity:0.35;}.cls-18{fill:#dfe0d4;}.cls-20,.cls-21{fill:#dbdcc4;}.cls-22{fill:#13393c;}.cls-23{fill:#fafbed;}.cls-24{fill:#eeefb2;}.cls-25{fill:#c6c6c6;}.cls-26{fill:#21211f;}.cls-27{fill:#008167;}.cls-28{fill:#183031;}.cls-29{fill:#c3c800;}.cls-30{fill:#f2e500;}</style></defs><title>banner-mapa-da-reciclagem</title><rect class="cls-1" x="-496.39" y="-71.1" width="2000" height="730" transform="translate(1503.61 658.9) rotate(180)"/><rect class="cls-2" x="520.12" y="206.19" width="71.75" height="192.77" transform="translate(1608.38 676.25) rotate(180)"/><rect class="cls-2" x="576.43" y="314.05" width="75.39" height="84.91" transform="translate(1724.64 784.11) rotate(180)"/><rect class="cls-2" x="483.79" y="242.97" width="47.23" height="155.99" transform="translate(1511.19 713.04) rotate(180)"/><rect class="cls-2" x="459.26" y="186.66" width="45.41" height="212.3" transform="translate(1460.33 656.73) rotate(180)"/><rect class="cls-2" x="483.79" y="133.07" width="12.72" height="92.65" transform="translate(1476.68 429.89) rotate(180)"/><rect class="cls-2" x="422.02" y="106.73" width="47.23" height="292.23" transform="translate(1387.66 576.8) rotate(180)"/><rect class="cls-2" x="376.15" y="246.61" width="59.04" height="152.35" transform="translate(1307.73 716.67) rotate(180)"/><rect class="cls-2" x="271.7" y="206.19" width="117.62" height="192.77" transform="translate(1157.41 676.25) rotate(180)"/><rect class="cls-2" x="344.82" y="168.95" width="14.08" height="74.03" transform="translate(1200.1 483.03) rotate(180)"/><rect class="cls-2" x="315.98" y="190.29" width="14.53" height="50.3" transform="translate(1142.88 501.99) rotate(180)"/><rect class="cls-2" x="271.7" y="121.26" width="27.7" height="257.27" transform="translate(1067.49 570.9) rotate(180)"/><rect class="cls-2" x="282.6" y="97.65" width="6.36" height="48.59" transform="translate(1067.95 314.99) rotate(180)"/><rect class="cls-2" x="199.04" y="186.66" width="83.56" height="212.3" transform="translate(978.02 656.73) rotate(180)"/><rect class="cls-2" x="179.06" y="136.25" width="44.96" height="262.71" transform="translate(899.46 606.32) rotate(180)"/><rect class="cls-2" x="114.11" y="166.68" width="71.75" height="232.28" transform="translate(796.37 636.74) rotate(180)"/><rect class="cls-2" x="126.77" y="121.95" width="20.04" height="70.17" transform="translate(769.97 385.16) rotate(180)"/><rect class="cls-2" x="54.39" y="195.74" width="64.72" height="203.22" transform="translate(669.89 665.81) rotate(180)"/><rect class="cls-2" x="12.84" y="161.23" width="53.48" height="237.73" transform="translate(575.54 631.29) rotate(180)"/><rect class="cls-2" x="29.64" y="121.95" width="14.99" height="76.07" transform="translate(570.66 391.06) rotate(180)"/><rect class="cls-2" x="-82.53" y="174.85" width="108.31" height="224.11" transform="translate(439.64 644.92) rotate(180)"/><rect class="cls-2" x="-14.41" y="152.15" width="12.26" height="34.52" transform="translate(479.83 409.91) rotate(180)"/><rect class="cls-2" x="-49.49" y="152.15" width="21.12" height="45.87" transform="translate(418.52 421.26) rotate(180)"/><rect class="cls-2" x="-70.27" y="152.15" width="7.27" height="38.15" transform="translate(363.11 413.54) rotate(180)"/><rect class="cls-2" x="-146.57" y="119.45" width="70.85" height="279.51" transform="translate(274.1 589.51) rotate(180)"/><rect class="cls-2" x="-122.38" y="89.47" width="22.14" height="49.96" transform="translate(273.76 300.01) rotate(180)"/><rect class="cls-2" x="-219.46" y="239.23" width="127.84" height="159.87" transform="translate(185.31 709.43) rotate(180)"/><rect class="cls-2" x="-301.43" y="198.01" width="102.75" height="201.09" transform="translate(-3.72 668.22) rotate(180)"/><rect class="cls-2" x="-301.43" y="174.85" width="49.5" height="54.95" transform="translate(-56.97 475.76) rotate(180)"/><rect class="cls-2" x="-257.83" y="123.99" width="28.16" height="118.99" transform="translate(8.88 438.07) rotate(180)"/><rect class="cls-2" x="-249.43" y="83.12" width="9.76" height="56.31" transform="translate(7.29 293.65) rotate(180)"/><rect class="cls-2" x="-373.64" y="211.64" width="108.09" height="187.46" transform="translate(-142.81 681.84) rotate(180)"/><rect class="cls-2" x="-418.15" y="157.03" width="71.3" height="242.07" transform="translate(-268.6 627.23) rotate(180)"/><rect class="cls-2" x="-483.1" y="362.97" width="75.85" height="36.13" transform="translate(-393.96 833.17) rotate(180)"/><rect class="cls-3" x="549.72" y="120.4" width="104.49" height="278.57" transform="translate(1700.31 590.46) rotate(180)"/><rect class="cls-3" x="1023.2" y="178.52" width="44.76" height="310.84"/><rect class="cls-3" x="1023.2" y="178.52" width="44.76" height="310.84"/><rect class="cls-3" x="1095.65" y="138.16" width="44.76" height="351.2"/><rect class="cls-3" x="547.93" y="292.69" width="53.13" height="106.27" transform="translate(1645.39 762.76) rotate(180)"/><rect class="cls-3" x="490.71" y="326.75" width="72.21" height="72.21" transform="translate(1550.02 796.82) rotate(180)"/><rect class="cls-3" x="458.01" y="265.44" width="49.05" height="133.52" transform="translate(1461.46 735.51) rotate(180)"/><rect class="cls-3" x="437.58" y="209.58" width="34.06" height="106.95" transform="translate(1405.6 597.22) rotate(180)"/><rect class="cls-3" x="450.75" y="158.26" width="7.27" height="80.38" transform="translate(1405.15 468.02) rotate(180)"/><rect class="cls-3" x="358.56" y="265.44" width="86.29" height="133.52" transform="translate(1299.79 735.51) rotate(180)"/><rect class="cls-3" x="417.59" y="307.68" width="54.04" height="91.28" transform="translate(1385.62 777.74) rotate(180)"/><rect class="cls-3" x="417.59" y="234.11" width="6.81" height="44.05" transform="translate(1338.39 583.37) rotate(180)"/><rect class="cls-3" x="398.29" y="234.11" width="6.81" height="44.05" transform="translate(1299.79 583.37) rotate(180)"/><rect class="cls-3" x="378.54" y="234.11" width="6.81" height="44.05" transform="translate(1260.28 583.37) rotate(180)"/><rect class="cls-3" x="304.06" y="320.62" width="69.48" height="78.34" transform="translate(1173.99 790.69) rotate(180)"/><rect class="cls-3" x="274.08" y="193.23" width="44.28" height="205.73" transform="translate(1088.84 663.3) rotate(180)"/><rect class="cls-3" x="232.53" y="259.31" width="52.45" height="139.65" transform="translate(1013.9 729.38) rotate(180)"/><rect class="cls-3" x="209.37" y="307.68" width="39.51" height="91.28" transform="translate(954.64 777.74) rotate(180)"/><rect class="cls-3" x="162.37" y="274.3" width="51.77" height="124.66" transform="translate(872.89 744.36) rotate(180)"/><rect class="cls-3" x="99.01" y="296.1" width="74.25" height="102.86" transform="translate(768.66 766.16) rotate(180)"/><rect class="cls-3" x="42.47" y="234.11" width="67.44" height="164.85" transform="translate(648.77 704.17) rotate(180)"/><rect class="cls-3" x="68.7" y="178.13" width="14.99" height="117.96" transform="translate(648.77 545.33) rotate(180)"/><rect class="cls-3" x="122.17" y="265.44" width="13.96" height="55.18" transform="translate(754.7 657.17) rotate(180)"/><rect class="cls-3" x="-30.42" y="256.13" width="87.2" height="142.83" transform="translate(522.74 726.2) rotate(180)"/><rect class="cls-3" x="-1.81" y="238.65" width="29.97" height="39.51" transform="translate(522.74 587.91) rotate(180)"/><rect class="cls-3" x="5.69" y="198.46" width="13.62" height="60.86" transform="translate(521.38 528.87) rotate(180)"/><rect class="cls-3" x="-80.15" y="293.03" width="66.08" height="105.93" transform="translate(402.17 763.1) rotate(180)"/><rect class="cls-3" x="-217.07" y="256.13" width="153.96" height="142.83" transform="translate(216.2 726.2) rotate(180)"/><rect class="cls-3" x="-137.37" y="198.46" width="39.51" height="97.64" transform="translate(261.16 565.66) rotate(180)"/><rect class="cls-3" x="-125.79" y="148.27" width="11.58" height="66.08" transform="translate(256.39 433.73) rotate(180)"/><rect class="cls-3" x="-163.94" y="234.11" width="12.26" height="31.34" transform="translate(180.77 570.65) rotate(180)"/><rect class="cls-3" x="-206.85" y="214.35" width="21.12" height="59.95" transform="translate(103.8 559.75) rotate(180)"/><rect class="cls-3" x="-257.95" y="292.69" width="56.54" height="106.27" transform="translate(37.04 762.76) rotate(180)"/><rect class="cls-3" x="-327.43" y="193.23" width="80.38" height="205.73" transform="translate(-78.09 663.3) rotate(180)"/><rect class="cls-3" x="-344.46" y="263.06" width="38.15" height="135.9" transform="translate(-154.39 733.12) rotate(180)"/><rect class="cls-3" x="-374.43" y="304.27" width="49.05" height="94.69" transform="translate(-203.43 774.34) rotate(180)"/><rect class="cls-3" x="-425.53" y="270.21" width="61.31" height="128.75" transform="translate(-293.35 740.28) rotate(180)"/><rect class="cls-3" x="-474.57" y="332.2" width="63.35" height="66.76" transform="translate(-389.41 802.27) rotate(180)"/><rect class="cls-3" x="-493.76" y="385.23" width="32.81" height="13.73" transform="translate(-458.32 855.29) rotate(180)"/><rect class="cls-4" x="72.63" y="182.18" width="51.89" height="25.99"/><rect class="cls-5" x="-371.87" y="111.08" width="21.26" height="25.99" transform="translate(-226.1 319.25) rotate(180)"/><rect class="cls-4" x="85.67" y="165.28" width="42.15" height="16.9"/><rect class="cls-5" x="-368.57" y="94.18" width="13.82" height="16.9" transform="translate(-226.93 276.36) rotate(180)"/><rect class="cls-4" x="58.72" y="203.48" width="62.04" height="266.58"/><rect class="cls-5" x="-375.62" y="132.38" width="34.68" height="266.58" transform="translate(-220.18 602.44) rotate(180)"/><rect class="cls-6" x="67.71" y="221.97" width="44.07" height="9.42"/><rect class="cls-6" x="67.71" y="241.27" width="44.07" height="9.42"/><rect class="cls-6" x="67.71" y="260.58" width="44.07" height="9.42"/><rect class="cls-6" x="67.71" y="279.88" width="44.07" height="9.42"/><rect class="cls-6" x="67.71" y="299.19" width="44.07" height="9.42"/><rect class="cls-6" x="67.71" y="318.49" width="44.07" height="9.42"/><rect class="cls-6" x="67.71" y="337.8" width="44.07" height="9.42"/><rect class="cls-6" x="67.71" y="357.1" width="44.07" height="9.42"/><rect class="cls-6" x="67.71" y="376.41" width="44.07" height="9.42"/><rect class="cls-6" x="67.71" y="395.71" width="44.07" height="9.42"/><rect class="cls-6" x="67.71" y="415.02" width="44.07" height="9.42"/><rect class="cls-6" x="126.43" y="221.97" width="23.29" height="9.42"/><rect class="cls-6" x="126.43" y="241.27" width="23.29" height="9.42"/><rect class="cls-6" x="126.43" y="260.58" width="23.29" height="9.42"/><rect class="cls-6" x="126.43" y="279.88" width="23.29" height="9.42"/><rect class="cls-6" x="126.43" y="299.19" width="23.29" height="9.42"/><rect class="cls-6" x="126.43" y="318.49" width="23.29" height="9.42"/><rect class="cls-6" x="126.43" y="337.8" width="23.29" height="9.42"/><rect class="cls-6" x="126.43" y="357.1" width="23.29" height="9.42"/><rect class="cls-6" x="126.43" y="376.41" width="23.29" height="9.42"/><rect class="cls-6" x="126.43" y="395.71" width="23.29" height="9.42"/><rect class="cls-6" x="126.43" y="415.02" width="23.29" height="9.42"/><rect class="cls-2" x="1371.44" y="275.18" width="71.75" height="123.78" transform="translate(3311.02 745.24) rotate(180)"/><rect class="cls-2" x="1427.75" y="346.67" width="45.74" height="52.29" transform="translate(3397.63 816.74) rotate(180)"/><rect class="cls-2" x="1335.11" y="242.97" width="47.23" height="155.99" transform="translate(3213.83 713.04) rotate(180)"/><rect class="cls-2" x="1310.58" y="186.66" width="45.41" height="212.3" transform="translate(3162.96 656.73) rotate(180)"/><rect class="cls-2" x="1335.11" y="133.07" width="12.72" height="92.65" transform="translate(3179.31 429.89) rotate(180)"/><rect class="cls-2" x="1273.34" y="106.73" width="47.23" height="292.23" transform="translate(3090.3 576.8) rotate(180)"/><rect class="cls-2" x="1227.47" y="246.61" width="59.04" height="152.35" transform="translate(3010.37 716.67) rotate(180)"/><rect class="cls-2" x="1123.02" y="206.19" width="117.62" height="192.77" transform="translate(2860.05 676.25) rotate(180)"/><rect class="cls-2" x="1196.14" y="168.95" width="14.08" height="74.03" transform="translate(2902.74 483.03) rotate(180)"/><rect class="cls-2" x="1167.3" y="190.29" width="14.53" height="50.3" transform="translate(2845.52 501.99) rotate(180)"/><rect class="cls-2" x="1123.02" y="121.26" width="27.7" height="257.27" transform="translate(2770.13 570.9) rotate(180)"/><rect class="cls-2" x="1133.92" y="97.65" width="6.36" height="48.59" transform="translate(2770.58 314.99) rotate(180)"/><rect class="cls-2" x="1050.36" y="186.66" width="83.56" height="212.3" transform="translate(2680.66 656.73) rotate(180)"/><rect class="cls-2" x="1030.37" y="136.25" width="44.96" height="262.71" transform="translate(2602.1 606.32) rotate(180)"/><rect class="cls-2" x="965.43" y="166.68" width="71.75" height="232.28" transform="translate(2499 636.74) rotate(180)"/><rect class="cls-2" x="978.09" y="121.95" width="20.04" height="70.17" transform="translate(2472.61 385.16) rotate(180)"/><rect class="cls-2" x="905.71" y="195.74" width="64.72" height="203.22" transform="translate(2372.52 665.81) rotate(180)"/><rect class="cls-2" x="864.16" y="161.23" width="53.48" height="237.73" transform="translate(2278.18 631.29) rotate(180)"/><rect class="cls-2" x="880.96" y="121.95" width="14.99" height="76.07" transform="translate(2273.29 391.06) rotate(180)"/><rect class="cls-2" x="768.79" y="174.85" width="108.31" height="224.11" transform="translate(2142.27 644.92) rotate(180)"/><rect class="cls-2" x="836.91" y="152.15" width="12.26" height="34.52" transform="translate(2182.47 409.91) rotate(180)"/><rect class="cls-2" x="801.83" y="152.15" width="21.12" height="45.87" transform="translate(2121.16 421.26) rotate(180)"/><rect class="cls-2" x="781.05" y="152.15" width="7.27" height="38.15" transform="translate(2065.75 413.54) rotate(180)"/><rect class="cls-2" x="704.75" y="69.45" width="70.85" height="329.51" transform="translate(1976.74 539.51) rotate(180)"/><rect class="cls-2" x="728.94" y="39.47" width="22.14" height="99.96" transform="translate(1976.4 250.01) rotate(180)"/><rect class="cls-2" x="631.86" y="239.23" width="127.84" height="159.87" transform="translate(1887.95 709.43) rotate(180)"/><rect class="cls-2" x="549.89" y="198.01" width="102.75" height="201.09" transform="translate(1698.91 668.22) rotate(180)"/><rect class="cls-2" x="549.89" y="174.85" width="49.5" height="54.95" transform="translate(1645.67 475.76) rotate(180)"/><rect class="cls-2" x="593.49" y="123.99" width="28.16" height="118.99" transform="translate(1711.52 438.07) rotate(180)"/><rect class="cls-2" x="601.89" y="83.12" width="9.76" height="56.31" transform="translate(1709.93 293.65) rotate(180)"/><rect class="cls-2" x="477.68" y="211.64" width="108.09" height="187.46" transform="translate(1559.83 681.84) rotate(180)"/><rect class="cls-2" x="433.17" y="157.03" width="71.3" height="242.07" transform="translate(1434.03 627.23) rotate(180)"/><rect class="cls-2" x="351.88" y="246.61" width="92.19" height="152.49" transform="translate(1292.34 716.81) rotate(180)"/><rect class="cls-3" x="1433.65" y="387.14" width="69.48" height="11.82" transform="translate(3433.18 857.21) rotate(180)"/><rect class="cls-3" x="1396.87" y="339.17" width="53.13" height="59.79" transform="translate(3343.26 809.24) rotate(180)"/><rect class="cls-3" x="1339.65" y="326.75" width="72.21" height="72.21" transform="translate(3247.89 796.82) rotate(180)"/><rect class="cls-3" x="1306.95" y="265.44" width="49.05" height="133.52" transform="translate(3159.33 735.51) rotate(180)"/><rect class="cls-3" x="1286.51" y="209.58" width="34.06" height="106.95" transform="translate(3103.47 597.22) rotate(180)"/><rect class="cls-3" x="1299.68" y="158.26" width="7.27" height="80.38" transform="translate(3103.02 468.02) rotate(180)"/><rect class="cls-3" x="1266.53" y="307.68" width="54.04" height="91.28" transform="translate(3083.49 777.74) rotate(180)"/><rect class="cls-3" x="1207.49" y="226.83" width="86.29" height="172.13" transform="translate(2997.66 696.9) rotate(180)"/><rect class="cls-3" x="1266.53" y="195.5" width="6.81" height="44.05" transform="translate(3036.26 506.15) rotate(180)"/><rect class="cls-3" x="1247.23" y="195.5" width="6.81" height="44.05" transform="translate(2997.66 506.15) rotate(180)"/><rect class="cls-3" x="1227.47" y="195.5" width="6.81" height="44.05" transform="translate(2958.14 506.15) rotate(180)"/><rect class="cls-3" x="1152.99" y="320.62" width="69.48" height="78.34" transform="translate(2871.86 790.69) rotate(180)"/><rect class="cls-3" x="1123.02" y="193.23" width="44.28" height="205.73" transform="translate(2786.71 663.3) rotate(180)"/><rect class="cls-3" x="1081.47" y="259.31" width="52.45" height="139.65" transform="translate(2711.77 729.38) rotate(180)"/><rect class="cls-3" x="1058.3" y="307.68" width="39.51" height="91.28" transform="translate(2652.51 777.74) rotate(180)"/><rect class="cls-3" x="1011.3" y="274.3" width="51.77" height="124.66" transform="translate(2570.76 744.36) rotate(180)"/><rect class="cls-3" x="947.95" y="296.1" width="74.25" height="102.86" transform="translate(2466.53 766.16) rotate(180)"/><rect class="cls-3" x="891.41" y="234.11" width="67.44" height="164.85" transform="translate(2346.64 704.17) rotate(180)"/><rect class="cls-3" x="917.63" y="178.13" width="14.99" height="117.96" transform="translate(2346.64 545.33) rotate(180)"/><rect class="cls-3" x="971.11" y="265.44" width="13.96" height="55.18" transform="translate(2452.57 657.17) rotate(180)"/><rect class="cls-3" x="818.52" y="256.13" width="87.2" height="142.83" transform="translate(2220.61 726.2) rotate(180)"/><rect class="cls-3" x="847.13" y="238.65" width="29.97" height="39.51" transform="translate(2220.61 587.91) rotate(180)"/><rect class="cls-3" x="854.62" y="198.46" width="13.62" height="60.86" transform="translate(2219.25 528.87) rotate(180)"/><rect class="cls-3" x="768.79" y="142.87" width="66.08" height="256.09" transform="translate(2100.04 612.93) rotate(180)"/><rect class="cls-3" x="661.86" y="93.34" width="110.97" height="305.62" transform="translate(1931.08 563.41) rotate(180)"/><rect class="cls-3" x="711.56" y="198.46" width="39.51" height="97.64" transform="translate(1959.03 565.66) rotate(180)"/><rect class="cls-3" x="723.14" y="148.27" width="11.58" height="66.08" transform="translate(1954.26 433.73) rotate(180)"/><rect class="cls-3" x="685" y="234.11" width="12.26" height="31.34" transform="translate(1878.64 570.65) rotate(180)"/><rect class="cls-3" x="642.08" y="214.35" width="21.12" height="59.95" transform="translate(1801.66 559.75) rotate(180)"/><rect class="cls-3" x="590.99" y="292.69" width="56.54" height="106.27" transform="translate(1734.91 762.76) rotate(180)"/><rect class="cls-3" x="521.5" y="193.23" width="80.38" height="205.73" transform="translate(1619.78 663.3) rotate(180)"/><rect class="cls-3" x="504.47" y="263.06" width="38.15" height="135.9" transform="translate(1543.48 733.12) rotate(180)"/><rect class="cls-3" x="474.5" y="304.27" width="49.05" height="94.69" transform="translate(1494.44 774.34) rotate(180)"/><rect class="cls-3" x="423.41" y="222.31" width="103.41" height="176.65" transform="translate(1446.61 692.38) rotate(180)"/><rect class="cls-3" x="451.58" y="195.74" width="37.62" height="203.22" transform="translate(1437.16 665.81) rotate(180)"/><rect class="cls-3" x="374.36" y="293.03" width="63.35" height="105.93" transform="translate(1308.46 763.1) rotate(180)"/><rect class="cls-3" x="355.17" y="343.1" width="32.81" height="55.86" transform="translate(1239.55 813.17) rotate(180)"/><rect class="cls-4" x="-344.46" y="75.38" width="125.55" height="323.48" transform="translate(-66.98 545.33) rotate(180)"/><rect class="cls-5" x="-248.45" y="99.38" width="9.6" height="273.26" rx="2.58" transform="translate(9.09 543.12) rotate(180)"/><rect class="cls-5" x="-273.68" y="99.38" width="9.6" height="273.26" rx="2.58" transform="translate(-41.38 543.12) rotate(180)"/><rect class="cls-5" x="-298.92" y="99.38" width="9.6" height="273.26" rx="2.58" transform="translate(-91.85 543.12) rotate(180)"/><rect class="cls-5" x="-324.15" y="99.38" width="9.6" height="273.26" rx="2.58" transform="translate(-142.31 543.12) rotate(180)"/><rect class="cls-1" x="1268.37" y="306.09" width="5.85" height="92.67" transform="translate(3038.98 775.96) rotate(180)"/><rect class="cls-1" x="1269.55" y="276.3" width="3.5" height="122.46" transform="translate(3038.98 746.17) rotate(180)"/><path class="cls-7" d="M1271.3,282V268.64a11.41,11.41,0,0,0-11.41-11.42h0a11.42,11.42,0,0,0-11.42,11.42V272" transform="translate(496.39 71.1)"/><path class="cls-1" d="M1234.6,278.6h27.75a.75.75,0,0,0,.71-1c-1-3.32-7.15-5.88-14.59-5.88s-13.57,2.56-14.58,5.88A.74.74,0,0,0,1234.6,278.6Z" transform="translate(496.39 71.1)"/><ellipse class="cls-1" cx="1744.86" cy="349.7" rx="10.4" ry="6.21"/><rect class="cls-1" x="1162.8" y="377.19" width="5.85" height="92.67"/><rect class="cls-1" x="1163.98" y="347.4" width="3.5" height="122.46"/><path class="cls-7" d="M669.34,282V268.64a11.42,11.42,0,0,1,11.42-11.42h0a11.41,11.41,0,0,1,11.41,11.42V272" transform="translate(496.39 71.1)"/><path class="cls-1" d="M706,278.6H678.29a.75.75,0,0,1-.71-1c1-3.32,7.15-5.88,14.59-5.88s13.58,2.56,14.58,5.88A.74.74,0,0,1,706,278.6Z" transform="translate(496.39 71.1)"/><ellipse class="cls-1" cx="1188.55" cy="349.7" rx="10.4" ry="6.21"/><rect class="cls-1" x="666.42" y="306.09" width="5.85" height="92.67" transform="translate(1835.09 775.96) rotate(180)"/><rect class="cls-1" x="667.6" y="276.3" width="3.5" height="122.46" transform="translate(1835.09 746.17) rotate(180)"/><path class="cls-7" d="M669.35,282V268.64a11.41,11.41,0,0,0-11.41-11.42h0a11.41,11.41,0,0,0-11.41,11.42V272" transform="translate(496.39 71.1)"/><path class="cls-1" d="M632.65,278.6H660.4a.74.74,0,0,0,.71-1c-1-3.32-7.15-5.88-14.58-5.88s-13.58,2.56-14.59,5.88A.75.75,0,0,0,632.65,278.6Z" transform="translate(496.39 71.1)"/><ellipse class="cls-1" cx="1142.91" cy="349.7" rx="10.4" ry="6.21"/><path class="cls-1" d="M-9.16,459.86c73.44,18.72,181.65,62.08,605.85,29.89,235.36-17.87,791.65,75.65,906.92-90.79L28.17,421.33Z" transform="translate(496.39 71.1)"/><path class="cls-8" d="M487.57,469.45c100.5-29.59,185.65-17.71,335.37-3.73,250.86,23.41,570-18.48,616.26-52.46L458,415.59Z" transform="translate(496.39 71.1)"/><path class="cls-8" d="M584.72,424c-63.83,63.09-409.28,125.95-781.8,65s-117.7-75.8-117.7-75.8Z" transform="translate(496.39 71.1)"/><path class="cls-9" d="M654.2,399c0,28.61-175.41,64.57-292.92,71.75-177.65,10.87-308-13.85-470,16.82-214.53,40.62-365.81-43.25-385-88.57Z" transform="translate(496.39 71.1)"/><path class="cls-9" d="M522.5,399c-120.27-19.6-495.81-32.38-674.18,0s642.39,22.21,642.39,22.21Z" transform="translate(496.39 71.1)"/><path class="cls-10" d="M281.32,399c-.29-10-14.09-45-22.56-54.35-2.3-2.54-5.41-3.39-8.24,0S230.71,378.44,230.71,399Z" transform="translate(496.39 71.1)"/><path class="cls-6" d="M873.91,326.47c-21,8.65-61,5.46-61.36-18.62s-16.39-21.41-10.29-42,13.34-29,7.24-43.07,20.58-14.4,20.58-28.35,5.34-31.11,18.3-31.11,18.29,14.93,14.48,27.48,5.34,19.2,18.3,22.54,10.29,19,3.05,25.07-1.62,21.34,6,27.06,10.72,22.7,1.57,31.17S891.45,319.22,873.91,326.47Z" transform="translate(496.39 71.1)"/><line class="cls-11" x1="1342.86" y1="468.29" x2="1342.86" y2="267.22"/><path class="cls-11" d="M862.86,218.73c0,7-3.3,27.69-16.39,27.69" transform="translate(496.39 71.1)"/><path class="cls-11" d="M838.34,211.1c.76,7.12,5,13.6,8.13,15.89" transform="translate(496.39 71.1)"/><path class="cls-11" d="M832,245c0,7.36,9,23.75,14.48,28.57" transform="translate(496.39 71.1)"/><path class="cls-11" d="M821.57,262.43c3.18-.12,12.19-2,14.1-5.21" transform="translate(496.39 71.1)"/><path class="cls-11" d="M846.47,297.63c3.56,1.52,18,2,24.65-9.79" transform="translate(496.39 71.1)"/><path class="cls-11" d="M824.75,297.37c0,7.24,12.57,17.28,21.72,21" transform="translate(496.39 71.1)"/><path class="cls-6" d="M961.49,284.19c7.18-17.45,2.64-37.29-7.16-43.7s-2.91-15.44,11.17-6.4,20.1,28.63,20.1,44.07,2.64,26.75,18.08,37.29,10.17,42.19-21.85,42.57-41.81-30.89-35-46.33S959.61,288.77,961.49,284.19Z" transform="translate(496.39 71.1)"/><path class="cls-11" d="M970.53,251.22c7.53,12.63,13.92,103.56-3.28,140.77" transform="translate(496.39 71.1)"/><path class="cls-11" d="M963.85,311.56c1.25,7.06,7.64,18.64,13.91,24.43" transform="translate(496.39 71.1)"/><path class="cls-11" d="M983.15,300.54c-.81,3.67-4.75,10.17-4.75,10.17" transform="translate(496.39 71.1)"/><circle class="cls-6" cx="807.5" cy="455.64" r="14.43"/><circle class="cls-6" cx="827.07" cy="461.26" r="8.8"/><circle class="cls-6" cx="782.16" cy="454.26" r="15.8"/><circle class="cls-6" cx="765.15" cy="459.06" r="11"/><rect class="cls-6" x="765.15" y="461.26" width="61.91" height="8.8"/><path class="cls-10" d="M485.1,387.85c1-5.18,6.4-11.4,6.31-3.67A127.19,127.19,0,0,1,490.28,399H462.69c.94-10.92,1.69-15.35,2.92-18.27s3.86-2.63,5.74,1,2.17,3.39,2.54-.38.66-6.12,2.07-9,4.34-3.2,5.28.75a93.35,93.35,0,0,1,1.5,13.94C482.74,388.7,484.65,390.07,485.1,387.85Z" transform="translate(496.39 71.1)"/><path class="cls-6" d="M503.84,399c2.92-3.86,4.9-10.92,1.22-7.63s-3.58,5.18-3.76-.47-1.42-8.38-2.55-2.73-.28,8-3.1,4.33-6.41-6.87-5.09-2.82,2.45,8.29-.28,5.37-8.85-5.28-5.93-1.42,3,4.24,4,5.37Z" transform="translate(496.39 71.1)"/><path class="cls-6" d="M468.52,399c-1.08-8.3-12.57-31.65-28.21-40.32s-14.69,21.66-20.9,28.26-6,.56-16-8.29-27.5-9.78-35.41.57S341.06,396.9,331.83,399Z" transform="translate(496.39 71.1)"/><path class="cls-10" d="M369.52,399c10.24-6.32-4.63-20.68-9.76-12.23s-11.59,1.11-10.91-5.67-16-8.48-14.57,0-5.65,11-8.48,6.08-11.77-9.44-12.71-2.61,3.11,10,7.35,14.43Z" transform="translate(496.39 71.1)"/><path class="cls-10" d="M12,387.85c1-5.18,6.41-11.4,6.31-3.67A124.66,124.66,0,0,1,17.15,399H-10.44c.94-10.92,1.7-15.35,2.92-18.27s3.86-2.63,5.74,1,2.17,3.39,2.55-.38.66-6.12,2.07-9,4.33-3.2,5.27.75A93.59,93.59,0,0,1,9.62,387C9.62,388.7,11.53,390.07,12,387.85Z" transform="translate(496.39 71.1)"/><path class="cls-6" d="M30.71,399c2.92-3.86,4.9-10.92,1.23-7.63s-3.58,5.18-3.77-.47-1.41-8.38-2.54-2.73-.28,8-3.11,4.33-6.4-6.87-5.08-2.82,2.45,8.29-.29,5.37-8.85-5.28-5.93-1.42,3,4.24,4,5.37Z" transform="translate(496.39 71.1)"/><path class="cls-6" d="M-4.6,399c-1.09-8.3-12.58-31.65-28.21-40.32S-47.5,380.3-53.72,386.9s-6,.56-16-8.29-27.49-9.78-35.4.57S-132.07,396.9-141.3,399Z" transform="translate(496.39 71.1)"/><path class="cls-10" d="M-103.6,399c10.24-6.32-4.63-20.68-9.77-12.23s-11.59,1.11-10.9-5.67-16-8.48-14.58,0-5.65,11-8.47,6.08-11.78-9.44-12.72-2.61,3.11,10,7.35,14.43Z" transform="translate(496.39 71.1)"/><path class="cls-12" d="M214.48,380.33c4.89,3.87,8.88,15,7.31,18.63h15.64c-4.58-3.3.68-7.81,5.87-8.36s5.8-1,.82-1.53-8.81,1.29-10.52,2.92-1.57.05-.34-.77,6.3-5.36,5.2-9.71-1.44-.84-1.1,0-3,6.08-8.33,8c-.82.29-1.23.05-.48-.65s.76-12.25-5-17.5c-1.72-1.57-1.51,0-.69.53s3.45,10.86,2.16,17c-.32,1.49-.6,1.56-.77.23s-3.12-6.37-9.2-9.43C213.25,378.72,213.88,379.86,214.48,380.33Z" transform="translate(496.39 71.1)"/><path class="cls-6" d="M95.6,399H226.22c26.28,0,35.78-21.1,11.85-36.1s-45.88-1.44-59.23,7.25-46.92,9.66-62.34-10.32S45.06,342.54,32,362.86C15.22,389,39.49,399,51.92,399Z" transform="translate(496.39 71.1)"/><path class="cls-12" d="M112.37,321.89c-20.21,16-36.72,62.2-30.22,77.07H17.45c18.93-13.67-2.83-32.31-24.3-34.57s-24-4.26-3.39-6.37,36.45,5.37,43.51,12.09,6.5.21,1.41-3.18-26.06-22.16-21.5-40.18,6-3.45,4.55,0S30,351.9,52.2,359.79c3.39,1.21,5.08.19,2-2.69S51,306.4,74.78,284.7c7.08-6.48,6.24.14,2.85,2.2s-14.27,44.91-8.93,70.2c1.3,6.16,2.48,6.42,3.16.92s12.9-26.32,38.05-39C117.46,315.23,114.84,320,112.37,321.89Z" transform="translate(496.39 71.1)"/><path class="cls-10" d="M1124.41,399c-.29-10-14.09-45-22.56-54.35-2.3-2.54-5.41-3.39-8.24,0S1073.8,378.44,1073.8,399Z" transform="translate(496.39 71.1)"/><path class="cls-10" d="M855.06,387.85c1-5.18,6.41-11.4,6.31-3.67A124.66,124.66,0,0,1,860.24,399H832.65c.94-10.92,1.7-15.35,2.92-18.27s3.86-2.63,5.75,1,2.16,3.39,2.54-.38.66-6.12,2.07-9,4.33-3.2,5.27.75A93.59,93.59,0,0,1,852.71,387C852.71,388.7,854.62,390.07,855.06,387.85Z" transform="translate(496.39 71.1)"/><path class="cls-6" d="M873.8,399c2.92-3.86,4.9-10.92,1.23-7.63s-3.58,5.18-3.77-.47-1.41-8.38-2.54-2.73-.28,8-3.11,4.33-6.4-6.87-5.08-2.82,2.45,8.29-.29,5.37-8.85-5.28-5.93-1.42,3,4.24,4.05,5.37Z" transform="translate(496.39 71.1)"/><path class="cls-6" d="M838.49,399c-1.09-8.3-12.58-31.65-28.21-40.32s-14.69,21.66-20.91,28.26-6,.56-16-8.29-27.5-9.78-35.41.57S711,396.9,701.8,399Z" transform="translate(496.39 71.1)"/><path class="cls-10" d="M739.49,399c10.24-6.32-4.63-20.68-9.77-12.23s-11.59,1.11-10.9-5.67-16-8.48-14.58,0-5.65,11-8.47,6.08-11.78-9.44-12.72-2.61,3.11,10,7.35,14.43Z" transform="translate(496.39 71.1)"/><path class="cls-6" d="M938.69,399h130.62c26.28,0,35.78-21.1,11.85-36.1s-45.88-1.44-59.23,7.25-46.92,9.66-62.34-10.32-71.44-17.25-84.47,3.07C858.31,389,882.58,399,895,399Z" transform="translate(496.39 71.1)"/><path class="cls-10" d="M86.8,387.85c1-5.18,6.41-11.4,6.31-3.67A124.66,124.66,0,0,1,92,399H64.39c.94-10.92,1.7-15.35,2.92-18.27s3.86-2.63,5.74,1,2.17,3.39,2.55-.38.66-6.12,2.07-9,4.33-3.2,5.27.75A93.59,93.59,0,0,1,84.45,387C84.45,388.7,86.36,390.07,86.8,387.85Z" transform="translate(496.39 71.1)"/><circle class="cls-5" cx="520.43" cy="461.73" r="8.33"/><circle class="cls-5" cx="531.73" cy="464.98" r="5.09"/><circle class="cls-5" cx="510.33" cy="465.47" r="4.59"/><circle class="cls-5" cx="500.94" cy="463.71" r="6.36"/><rect class="cls-5" x="4.55" y="393.88" width="30.79" height="5.09" transform="translate(536.28 863.94) rotate(180)"/><circle class="cls-6" cx="1067.26" cy="446.31" r="14.43"/><circle class="cls-6" cx="1086.82" cy="451.93" r="8.8"/><circle class="cls-6" cx="1041.92" cy="444.93" r="15.8"/><circle class="cls-6" cx="1024.91" cy="449.73" r="11"/><rect class="cls-6" x="1024.91" y="451.93" width="61.91" height="8.8"/><circle class="cls-6" cx="1147.99" cy="441.48" r="19.26"/><circle class="cls-6" cx="1174.1" cy="438.73" r="21.83"/><circle class="cls-6" cx="1114.17" cy="439.64" r="21.09"/><circle class="cls-6" cx="1091.46" cy="446.05" r="14.69"/><rect class="cls-6" x="1091.46" y="448.98" width="82.64" height="11.75"/><path class="cls-5" d="M563.73,387.15c-9.53-11.19-9.62-20.78-.77-14.91s9.86,11.81,15.66.27,23.8-25.82,26.58-10.59,3,16.66,12.66,10.59,12.94-3.9,13.58,1.65,5.92,3.77,10.44,0,52.54-12.81,54,10.92-55.54,7.82-55.54,7.82Z" transform="translate(496.39 71.1)"/><path class="cls-13" d="M1006.07,453.67h194.18a4.43,4.43,0,0,1,4.43,4.43v12a0,0,0,0,1,0,0h-203a0,0,0,0,1,0,0v-12A4.43,4.43,0,0,1,1006.07,453.67Z"/><rect class="cls-13" x="1008.14" y="448.68" width="16.29" height="8.57" rx="2.07"/><rect class="cls-13" x="1037.1" y="448.68" width="16.29" height="8.57" rx="2.07"/><rect class="cls-13" x="1066.05" y="448.68" width="16.29" height="8.57" rx="2.07"/><rect class="cls-13" x="1095.01" y="448.68" width="16.29" height="8.57" rx="2.07"/><rect class="cls-13" x="1123.97" y="448.68" width="16.29" height="8.57" rx="2.07"/><rect class="cls-13" x="1152.93" y="448.68" width="16.29" height="8.57" rx="2.07"/><rect class="cls-13" x="1181.88" y="448.68" width="16.29" height="8.57" rx="2.07"/><circle class="cls-13" cx="1031.82" cy="450.57" r="10.16"/><circle class="cls-13" cx="1015.47" cy="453.22" r="8.84"/><circle class="cls-13" cx="1043.66" cy="450.1" r="5.17"/><circle class="cls-13" cx="1053.83" cy="449.74" r="9.33"/><circle class="cls-13" cx="1066.21" cy="452.33" r="5.91"/><circle class="cls-13" cx="1080.1" cy="451.5" r="9.24"/><circle class="cls-13" cx="1093.18" cy="457.89" r="8.91"/><circle class="cls-13" cx="1074.8" cy="449.89" r="4.96"/><circle class="cls-13" cx="1098.69" cy="451.56" r="5.51"/><circle class="cls-13" cx="1114.99" cy="451.84" r="8.71"/><circle class="cls-13" cx="1108.1" cy="447.84" r="7.43"/><circle class="cls-13" cx="1131.88" cy="453.96" r="7.91"/><circle class="cls-13" cx="1124.26" cy="454.96" r="5.23"/><circle class="cls-13" cx="1125.34" cy="448.35" r="4.61"/><circle class="cls-13" cx="1143.05" cy="453.11" r="7.07"/><circle class="cls-13" cx="1156.3" cy="451.01" r="9.54"/><circle class="cls-13" cx="1169.33" cy="453.77" r="7.35"/><circle class="cls-13" cx="1184.18" cy="452.5" r="9.37"/><circle class="cls-13" cx="1193" cy="454" r="7.58"/><path class="cls-5" d="M865.28,399c-15.49-21.58-5.32-44.46,8.52-31.6s9.61,10.56,14.69.26,25.15-18.8,22.61,0-.85,19.05,8.47,15.54,17.89,6.21,5.56,8.83-18.59.86-19.42,7Z" transform="translate(496.39 71.1)"/><path class="cls-10" d="M1010.56,399c0-4.41,4.59-7.17,6.85-5s2.83,3.18,5.09.85,7.41-7,11.08-4,6.71,6.22,10.67,2.76,12.78,1.34,14,5.4Z" transform="translate(496.39 71.1)"/><path class="cls-6" d="M1137.34,244a50,50,0,1,0-84,36.54,21,21,0,0,1,6.71,17.65,26.73,26.73,0,0,0-.15,4.21,27.53,27.53,0,0,0,55-1.13,29.59,29.59,0,0,0-.17-3.14,20.46,20.46,0,0,1,6.47-17.37A49.79,49.79,0,0,0,1137.34,244Z" transform="translate(496.39 71.1)"/><line class="cls-11" x1="1583.77" y1="350.74" x2="1583.77" y2="465.61"/><path class="cls-11" d="M1073.3,293.69c0,3.95,4.53,17.65,14.08,17.65" transform="translate(496.39 71.1)"/><path class="cls-11" d="M1087.38,293.69c5.61,0,8.71-4.81,8.71-7.77" transform="translate(496.39 71.1)"/><circle class="cls-5" cx="1555.45" cy="321.76" r="3.37"/><circle class="cls-5" cx="1568.95" cy="296.48" r="2.1"/><circle class="cls-5" cx="1579.49" cy="309.63" r="1.41"/><circle class="cls-5" cx="1602.58" cy="311.4" r="1.77"/><circle class="cls-5" cx="1606.18" cy="284.42" r="3.6"/><path class="cls-6" d="M1197,282.76c0-29.76-6.51-53.88-14.55-53.88s-14.55,24.12-14.55,53.88c0,4.73.17,9.32.48,13.7a112.25,112.25,0,0,1-.36,18.24c-.08.8-.12,1.62-.12,2.45,0,10.89,6.52,19.72,14.55,19.72S1197,328,1197,317.15c0-.83,0-1.65-.11-2.45a111.13,111.13,0,0,1-.36-18.24C1196.79,292.08,1197,287.49,1197,282.76Z" transform="translate(496.39 71.1)"/><line class="cls-11" x1="1678.57" y1="373.62" x2="1678.57" y2="458.24"/><path class="cls-11" d="M1190.27,331.15c0,7.25-4.12,12.9-8.09,12.9" transform="translate(496.39 71.1)"/><path class="cls-11" d="M1177.53,332.2c-.12,3.48,1.54,7,4.65,7" transform="translate(496.39 71.1)"/><circle class="cls-6" cx="1650.59" cy="455.64" r="14.43"/><circle class="cls-6" cx="1670.16" cy="461.26" r="8.8"/><circle class="cls-6" cx="1625.25" cy="454.26" r="15.8"/><circle class="cls-6" cx="1608.24" cy="459.06" r="11"/><rect class="cls-6" x="1608.24" y="461.26" width="61.91" height="8.8"/><path class="cls-10" d="M1328.19,387.85c1-5.18,6.4-11.4,6.31-3.67a127.19,127.19,0,0,1-1.13,14.78h-27.59c.94-10.92,1.69-15.35,2.92-18.27s3.86-2.63,5.74,1,2.17,3.39,2.54-.38.66-6.12,2.07-9,4.34-3.2,5.28.75a93.35,93.35,0,0,1,1.5,13.94C1325.83,388.7,1327.74,390.07,1328.19,387.85Z" transform="translate(496.39 71.1)"/><path class="cls-6" d="M1346.93,399c2.92-3.86,4.9-10.92,1.22-7.63s-3.58,5.18-3.76-.47-1.42-8.38-2.55-2.73-.28,8-3.1,4.33-6.41-6.87-5.09-2.82,2.45,8.29-.28,5.37-8.85-5.28-5.93-1.42,3,4.24,4,5.37Z" transform="translate(496.39 71.1)"/><path class="cls-6" d="M1311.61,399c-1.08-8.3-12.57-31.65-28.2-40.32s-14.7,21.66-20.91,28.26-6,.56-16-8.29-27.5-9.78-35.41.57-26.93,17.72-36.16,19.78Z" transform="translate(496.39 71.1)"/><path class="cls-5" d="M1212.61,399c10.24-6.32-4.63-20.68-9.76-12.23s-11.59,1.11-10.91-5.67-16-8.48-14.57,0-5.65,11-8.48,6.08-11.77-9.44-12.71-2.61,3.11,10,7.35,14.43Z" transform="translate(496.39 71.1)"/><path class="cls-6" d="M1422.91,392.73c-7.72-7.34-14.21-31.45.53-40.68s27.85,4.52,26.56,11.68c4.75-9,21.7-10.55,24.14-1.7,8.29-7.15,23,11.7,8.29,23S1422.91,392.73,1422.91,392.73Z" transform="translate(496.39 71.1)"/><circle class="cls-6" cx="1865.17" cy="446.31" r="14.43"/><circle class="cls-6" cx="1884.73" cy="451.93" r="8.8"/><circle class="cls-6" cx="1839.83" cy="444.93" r="15.8"/><circle class="cls-6" cx="1822.81" cy="449.73" r="11"/><rect class="cls-6" x="1822.81" y="451.93" width="61.91" height="8.8"/><path class="cls-5" d="M1385.72,387.84c3.81-7.21-7.88-27.82-16.94-35.88-2.7-2.4-.61-2.83,2.66-1.56s19.08,3.39,28.12,29c-1.27-13.84,4.84-24,10.68-28.67s5.71-.57,2.6,1.41-4.38,10.88-4.38,14.83.42,5.06,2.83.69,9-7.62,15.67-7.83,3.11,1.92,1.7,1.92-16.39,8.49-11.58,23.31Z" transform="translate(496.39 71.1)"/><path class="cls-13" d="M1801.39,453.67h194.18a4.43,4.43,0,0,1,4.43,4.43v12a0,0,0,0,1,0,0H1797a0,0,0,0,1,0,0v-12A4.43,4.43,0,0,1,1801.39,453.67Z"/><rect class="cls-13" x="1803.46" y="448.68" width="16.29" height="8.57" rx="2.07"/><rect class="cls-13" x="1832.42" y="448.68" width="16.29" height="8.57" rx="2.07"/><rect class="cls-13" x="1861.38" y="448.68" width="16.29" height="8.57" rx="2.07"/><rect class="cls-13" x="1890.34" y="448.68" width="16.29" height="8.57" rx="2.07"/><rect class="cls-13" x="1919.3" y="448.68" width="16.29" height="8.57" rx="2.07"/><rect class="cls-13" x="1948.25" y="448.68" width="16.29" height="8.57" rx="2.07"/><rect class="cls-13" x="1977.21" y="448.68" width="16.29" height="8.57" rx="2.07"/><circle class="cls-13" cx="1827.15" cy="450.57" r="10.16"/><circle class="cls-13" cx="1810.79" cy="453.22" r="8.84"/><circle class="cls-13" cx="1838.99" cy="450.1" r="5.17"/><circle class="cls-13" cx="1849.16" cy="449.74" r="9.33"/><circle class="cls-13" cx="1861.54" cy="452.33" r="5.91"/><circle class="cls-13" cx="1875.43" cy="451.5" r="9.24"/><circle class="cls-13" cx="1888.5" cy="457.89" r="8.91"/><circle class="cls-13" cx="1870.13" cy="449.89" r="4.96"/><circle class="cls-13" cx="1894.01" cy="451.56" r="5.51"/><circle class="cls-13" cx="1910.31" cy="451.84" r="8.71"/><circle class="cls-13" cx="1903.43" cy="447.84" r="7.43"/><circle class="cls-13" cx="1927.21" cy="453.96" r="7.91"/><circle class="cls-13" cx="1919.59" cy="454.96" r="5.23"/><circle class="cls-13" cx="1920.66" cy="448.35" r="4.61"/><circle class="cls-13" cx="1938.38" cy="453.11" r="7.07"/><circle class="cls-13" cx="1951.63" cy="451.01" r="9.54"/><circle class="cls-13" cx="1964.65" cy="453.77" r="7.35"/><circle class="cls-13" cx="1979.5" cy="452.5" r="9.37"/><circle class="cls-13" cx="1988.33" cy="454" r="7.58"/><path class="cls-9" d="M291.34,457.87c43.71-2.11,123.23,15.15,211.34-4.94S772,424,965.43,439.86s500.06-14,538.18-40.9H523.55Z" transform="translate(496.39 71.1)"/><path class="cls-14" d="M-245.81,442.63h0a4,4,0,0,1,4-4h-35.85a4,4,0,0,1,4,4h0a4,4,0,0,1-4,4h35.85A4,4,0,0,1-245.81,442.63Z" transform="translate(496.39 71.1)"/><path class="cls-14" d="M-245.81,465.32h0a4,4,0,0,1,4-4h-35.85a4,4,0,0,1,4,4h0a4,4,0,0,1-4,4h35.85A4,4,0,0,1-245.81,465.32Z" transform="translate(496.39 71.1)"/><rect class="cls-14" x="208.81" y="495.07" width="55.26" height="14.64" rx="7.32"/><rect class="cls-14" x="145.13" y="517.76" width="130.28" height="14.64" rx="7.32"/><rect class="cls-14" x="189.39" y="540.46" width="161.96" height="8.06" rx="4.03"/><path class="cls-14" d="M1163.64,442.63h0a4,4,0,0,1,4-4h-35.86a4,4,0,0,1,4,4h0a4,4,0,0,1-4,4h35.86A4,4,0,0,1,1163.64,442.63Z" transform="translate(496.39 71.1)"/><rect class="cls-14" x="1618.27" y="495.07" width="55.26" height="14.64" rx="7.32"/><rect class="cls-14" x="1554.58" y="517.76" width="130.28" height="14.64" rx="7.32"/><path class="cls-14" d="M332.19,442.63h0a4,4,0,0,1,4-4H300.37a4,4,0,0,1,4,4h0a4,4,0,0,1-4,4h35.85A4,4,0,0,1,332.19,442.63Z" transform="translate(496.39 71.1)"/><path class="cls-14" d="M332.19,465.32h0a4,4,0,0,1,4-4H300.37a4,4,0,0,1,4,4h0a4,4,0,0,1-4,4h35.85A4,4,0,0,1,332.19,465.32Z" transform="translate(496.39 71.1)"/><rect class="cls-14" x="748.21" y="495.07" width="93.87" height="14.64" rx="7.32"/><rect class="cls-14" x="723.14" y="517.76" width="294.38" height="14.64" rx="7.32"/><rect class="cls-14" x="767.4" y="540.46" width="171.61" height="8.06" rx="4.03"/><rect class="cls-4" x="378.1" y="252.42" width="144.92" height="217.65"/><rect class="cls-5" x="396.68" y="277.56" width="20.89" height="20.89"/><rect class="cls-5" x="425.64" y="277.56" width="20.89" height="20.89"/><rect class="cls-5" x="454.6" y="277.56" width="20.89" height="20.89"/><rect class="cls-5" x="483.55" y="277.56" width="20.89" height="20.89"/><rect class="cls-5" x="396.68" y="322.12" width="20.89" height="20.89"/><rect class="cls-5" x="425.64" y="322.12" width="20.89" height="20.89"/><rect class="cls-5" x="454.6" y="322.12" width="20.89" height="20.89"/><rect class="cls-5" x="483.55" y="322.12" width="20.89" height="20.89"/><rect class="cls-5" x="396.68" y="308.11" width="108.13" height="4.36"/><rect class="cls-5" x="396.68" y="366.68" width="20.89" height="20.89"/><rect class="cls-5" x="425.64" y="366.68" width="20.89" height="20.89"/><rect class="cls-5" x="454.6" y="366.68" width="20.89" height="20.89"/><rect class="cls-5" x="483.55" y="366.68" width="20.89" height="20.89"/><rect class="cls-5" x="396.68" y="352.66" width="108.13" height="4.36"/><rect class="cls-5" x="396.68" y="411.23" width="20.89" height="20.89"/><rect class="cls-5" x="425.64" y="411.23" width="20.89" height="20.89"/><rect class="cls-5" x="454.6" y="411.23" width="20.89" height="20.89"/><rect class="cls-5" x="483.55" y="411.23" width="20.89" height="20.89"/><rect class="cls-5" x="396.68" y="397.22" width="108.13" height="4.36"/><rect class="cls-4" x="407.62" y="219.38" width="85.88" height="45.35"/><rect class="cls-4" x="427.08" y="201.11" width="46.97" height="45.35"/><polygon class="cls-4" points="450.56 208.93 450.56 149.44 442.41 208.93 450.56 208.93"/><polygon class="cls-4" points="450.56 208.93 450.56 149.44 458.72 208.93 450.56 208.93"/><rect class="cls-5" x="-218.91" y="173.43" width="103.8" height="225.43" transform="translate(162.37 643.39) rotate(180)"/><rect class="cls-5" x="-203.27" y="158.4" width="72.52" height="38.1" transform="translate(162.37 426) rotate(180)"/><rect class="cls-5" x="-195.14" y="144.24" width="56.27" height="34.6" transform="translate(162.37 394.19) rotate(180)"/><rect class="cls-5" x="-185.88" y="134.11" width="37.75" height="29.01" transform="translate(162.37 368.33) rotate(180)"/><rect class="cls-6" x="-210.35" y="192.83" width="86.68" height="9.79" transform="translate(162.37 466.54) rotate(180)"/><rect class="cls-6" x="-210.35" y="212.53" width="86.68" height="9.79" transform="translate(162.37 505.95) rotate(180)"/><rect class="cls-6" x="-210.35" y="230.44" width="86.68" height="9.79" transform="translate(162.37 541.77) rotate(180)"/><rect class="cls-6" x="-210.35" y="248.35" width="86.68" height="9.79" transform="translate(162.37 577.59) rotate(180)"/><rect class="cls-6" x="-210.35" y="266.26" width="86.68" height="9.79" transform="translate(162.37 613.42) rotate(180)"/><rect class="cls-6" x="-210.35" y="284.18" width="86.68" height="9.79" transform="translate(162.37 649.24) rotate(180)"/><rect class="cls-6" x="-210.35" y="302.09" width="86.68" height="9.79" transform="translate(162.37 685.06) rotate(180)"/><rect class="cls-6" x="-210.35" y="320" width="86.68" height="9.79" transform="translate(162.37 720.89) rotate(180)"/><rect class="cls-6" x="-210.35" y="337.91" width="86.68" height="9.79" transform="translate(162.37 756.71) rotate(180)"/><rect class="cls-6" x="-210.35" y="355.82" width="86.68" height="9.79" transform="translate(162.37 792.54) rotate(180)"/><rect class="cls-6" x="-210.35" y="373.74" width="86.68" height="9.79" transform="translate(162.37 828.36) rotate(180)"/><rect class="cls-1" x="246.84" y="377.19" width="5.85" height="92.67"/><rect class="cls-1" x="248.02" y="347.4" width="3.5" height="122.46"/><path class="cls-7" d="M-246.62,282V268.64a11.41,11.41,0,0,1,11.41-11.42h0a11.41,11.41,0,0,1,11.41,11.42V272" transform="translate(496.39 71.1)"/><path class="cls-1" d="M-209.92,278.6h-27.75a.74.74,0,0,1-.71-1c1-3.32,7.15-5.88,14.58-5.88s13.58,2.56,14.59,5.88A.75.75,0,0,1-209.92,278.6Z" transform="translate(496.39 71.1)"/><ellipse class="cls-1" cx="272.59" cy="349.7" rx="10.4" ry="6.21"/><path class="cls-6" d="M-287.24,263.06c-11.53,11.85-28.11,66,0,91Z" transform="translate(496.39 71.1)"/><path class="cls-6" d="M-287.24,263.06c11.54,11.85,28.11,66,0,91Z" transform="translate(496.39 71.1)"/><line class="cls-11" x1="209.15" y1="373.62" x2="209.15" y2="458.24"/><path class="cls-11" d="M-279.15,315.51c0,7.25-4.12,12.9-8.09,12.9" transform="translate(496.39 71.1)"/><path class="cls-11" d="M-291.89,332.2c-.12,3.48,1.54,7,4.65,7" transform="translate(496.39 71.1)"/><path class="cls-6" d="M-52,250.59a29,29,0,0,0-.08-4.26,29.25,29.25,0,0,0-27.54-26.39A29.13,29.13,0,0,0-110.21,249c0,.45,0,.91,0,1.36a15.69,15.69,0,0,1-3.63,11.12,43.25,43.25,0,0,0-10.62,30.89,43.61,43.61,0,0,0,43.27,41A43.41,43.41,0,0,0-37.67,290a43.23,43.23,0,0,0-10.6-28.41A15.58,15.58,0,0,1-52,250.59Z" transform="translate(496.39 71.1)"/><line class="cls-11" x1="415.3" y1="370.83" x2="415.3" y2="459.89"/><path class="cls-11" d="M-96.53,310c0,7.27,7.54,13.87,15.45,13.87" transform="translate(496.39 71.1)"/><path class="cls-11" d="M-81.08,315.13c5.88,0,11.77-5.75,11.77-9.89" transform="translate(496.39 71.1)"/><path class="cls-11" d="M-94.21,317c4.09-1.54,5.4-4.55,5.4-6.77" transform="translate(496.39 71.1)"/><path class="cls-11" d="M-70.75,309.21c1.08,1.08,6.92,2.24,9.56.41" transform="translate(496.39 71.1)"/><circle class="cls-5" cx="392" cy="349.91" r="2.75"/><circle class="cls-5" cx="402.96" cy="340.97" r="4.43"/><circle class="cls-5" cx="401.14" cy="323.02" r="2.14"/><circle class="cls-5" cx="425.63" cy="314.02" r="3.69"/><circle class="cls-5" cx="440.41" cy="339.17" r="1.8"/><circle class="cls-5" cx="434.75" cy="356.28" r="3.2"/><circle class="cls-5" cx="446.83" cy="369.06" r="1.86"/><path class="cls-10" d="M122.88,399c-.28-10-14.08-45-22.56-54.35-2.3-2.54-5.4-3.39-8.23,0S72.27,378.44,72.27,399Z" transform="translate(496.39 71.1)"/><path class="cls-10" d="M-146.46,387.85c1-5.18,6.4-11.4,6.31-3.67A124.66,124.66,0,0,1-141.28,399h-27.59c.94-10.92,1.69-15.35,2.92-18.27s3.86-2.63,5.74,1,2.17,3.39,2.54-.38.66-6.12,2.08-9,4.33-3.2,5.27.75A93.59,93.59,0,0,1-148.81,387C-148.81,388.7-146.9,390.07-146.46,387.85Z" transform="translate(496.39 71.1)"/><path class="cls-6" d="M-127.72,399c2.92-3.86,4.9-10.92,1.23-7.63s-3.58,5.18-3.77-.47-1.41-8.38-2.54-2.73-.29,8-3.11,4.33-6.41-6.87-5.09-2.82,2.45,8.29-.28,5.37-8.85-5.28-5.93-1.42,3,4.24,4.05,5.37Z" transform="translate(496.39 71.1)"/><path class="cls-6" d="M-163,399c-1.09-8.3-12.58-31.65-28.21-40.32s-14.69,21.66-20.91,28.26-6,.56-16-8.29-27.5-9.78-35.41.57S-290.5,396.9-299.73,399Z" transform="translate(496.39 71.1)"/><path class="cls-5" d="M-262,399c10.25-6.32-4.62-20.68-9.76-12.23s-11.59,1.11-10.91-5.67-16-8.48-14.57,0-5.65,11-8.47,6.08-11.78-9.44-12.72-2.61,3.11,10,7.35,14.43Z" transform="translate(496.39 71.1)"/><path class="cls-6" d="M-62.84,399H67.79c26.28,0,35.78-21.1,11.85-36.1s-45.89-1.44-59.24,7.25-46.91,9.66-62.34-10.32-71.43-17.25-84.47,3.07c-16.8,26.18,7.46,36.1,19.89,36.1Z" transform="translate(496.39 71.1)"/><path class="cls-5" d="M-136.24,399c-15.49-21.58-5.32-44.46,8.52-31.6s9.61,10.56,14.69.26,25.14-18.8,22.6,0-.85,19.05,8.48,15.54,17.89,6.21,5.55,8.83-18.58.86-19.41,7Z" transform="translate(496.39 71.1)"/><path class="cls-10" d="M9,399c0-4.41,4.59-7.17,6.85-5s2.82,3.18,5.08.85,7.42-7,11.09-4,6.71,6.22,10.67,2.76,12.78,1.34,14.05,5.4Z" transform="translate(496.39 71.1)"/><rect class="cls-15" x="32.12" y="239.06" width="111.37" height="128.34" rx="23.67" transform="translate(445.07 90.96) rotate(-10)"/><rect class="cls-15" x="256.12" y="218.11" width="137.53" height="158.48" rx="29.22" transform="translate(449.69 132.04) rotate(-10)"/><rect class="cls-15" x="159.17" y="228.89" width="71.4" height="82.28" rx="15.17" transform="translate(452.46 109.04) rotate(-10)"/><ellipse class="cls-16" cx="1184.29" cy="657.08" rx="127.62" ry="10.54"/><ellipse class="cls-17" cx="820.3" cy="634.39" rx="177.19" ry="28.64"/><ellipse class="cls-18" cx="792.99" cy="654.17" rx="70.33" ry="8.9"/><g class="cls-19"><ellipse class="cls-20" cx="1102.4" cy="655.71" rx="23.78" ry="4.05"/></g><ellipse class="cls-21" cx="1276.86" cy="656.4" rx="13.27" ry="2.23"/><path class="cls-5" d="M777.19,564l-1.92-6.35-10.67,4.77,1,6.76C772,570.68,775.06,567.19,777.19,564Z" transform="translate(496.39 71.1)"/><path class="cls-5" d="M610.53,560.31,608,567.19c-3.33.75-7.74-2.73-9.17-4.19l2.57-6.78Z" transform="translate(496.39 71.1)"/><path class="cls-12" d="M799.75,559.1c1.64,1,3.87,3.12,1.72,4.63l-28.1,19.65a3.69,3.69,0,0,1-5.71-2.2s-1.88-9.6-3.06-13.31c7.87-.66,11-2.76,13.8-5.27C784,561.41,795.71,559.52,799.75,559.1Z" transform="translate(496.39 71.1)"/><polygon class="cls-5" points="1298.58 631.43 1265.08 654.11 1267.31 656.57 1300.18 633.7 1298.58 631.43"/><path class="cls-10" d="M795,558.39c-6.59,1.29-10.2,12-10.12,13.64l17.29-11.7S800,557.44,795,558.39Z" transform="translate(496.39 71.1)"/><path class="cls-10" d="M777.4,577.11l-12.8-9.24s.85,11.67,4.09,15.13Z" transform="translate(496.39 71.1)"/><path class="cls-22" d="M704.87,379.37c-7.21,37.17-75.63,157.78-94.28,186-2.6-1.12-8.68-3.29-12.73-4.54C610.29,532.64,632,460,643.32,417.11s14-90.13,14-90.13l52-23.17Z" transform="translate(496.39 71.1)"/><path class="cls-10" d="M715.27,321.89l16.58,10.18c32.75,57.38,59,104.46,46.43,228.26-6.42.84-11.1,2-15.43,5.07-19.74-130.8-69.43-163.65-105.54-232.7Z" transform="translate(496.39 71.1)"/><path class="cls-23" d="M814.31,149.79c.51,17.21-15.37,23.22-18.19,29.86S772.24,237,762.22,249,720,224.57,720,224.57l25.71-33.2c3.67,11.45-.14,19.21,5.22,26.84,5.8-10.17,17.66-23,24.44-28.39S789.27,171,789.27,171Z" transform="translate(496.39 71.1)"/><polygon class="cls-24" points="1217.21 209.84 1211.09 233.66 1185.29 205.97 1198.99 190.29 1202.05 188.36 1217.21 209.84"/><circle class="cls-10" cx="783.29" cy="495.42" r="85.39"/><circle class="cls-25" cx="783.29" cy="495.42" r="48.12"/><circle class="cls-26" cx="783.29" cy="495.43" r="25.55"/><ellipse class="cls-26" cx="280.8" cy="389.66" rx="8.69" ry="2.54" transform="translate(432.99 125.78) rotate(-10)"/><ellipse class="cls-26" cx="293.02" cy="459" rx="8.69" ry="2.54" transform="translate(421.13 128.96) rotate(-10)"/><ellipse class="cls-26" cx="258.07" cy="404.14" rx="8.69" ry="2.54" transform="translate(275.38 454.84) rotate(-55)"/><ellipse class="cls-26" cx="315.75" cy="444.52" rx="8.69" ry="2.54" transform="matrix(0.57, -0.82, 0.82, 0.57, 266.9, 519.3)"/><ellipse class="cls-26" cx="252.24" cy="430.44" rx="2.54" ry="8.69" transform="translate(425.47 121.44) rotate(-10)"/><ellipse class="cls-26" cx="321.58" cy="418.22" rx="2.54" ry="8.69" transform="translate(428.65 133.3) rotate(-10)"/><ellipse class="cls-26" cx="266.72" cy="453.17" rx="2.54" ry="8.69" transform="translate(238.91 482.83) rotate(-55)"/><ellipse class="cls-26" cx="307.1" cy="395.49" rx="2.54" ry="8.69" transform="translate(303.37 491.31) rotate(-55)"/><rect class="cls-27" x="158.44" y="356.48" width="301.72" height="71.19" rx="13.47" transform="translate(1178.37 795.58) rotate(170)"/><rect class="cls-12" x="20.22" y="243.79" width="473.2" height="151.92" rx="12.57" transform="translate(1061.65 661.15) rotate(170)"/><circle class="cls-10" cx="797.7" cy="577.13" r="85.39"/><circle class="cls-12" cx="797.7" cy="577.13" r="50.29"/><circle class="cls-5" cx="797.7" cy="577.13" r="48.12"/><circle class="cls-28" cx="797.7" cy="577.13" r="28.61"/><circle class="cls-10" cx="797.7" cy="577.13" r="7.76"/><circle class="cls-10" cx="801.51" cy="560.1" r="2.33"/><circle class="cls-10" cx="793.9" cy="594.16" r="2.33"/><circle class="cls-10" cx="782.49" cy="573.73" r="2.08"/><circle class="cls-10" cx="812.91" cy="580.53" r="2.08"/><ellipse class="cls-28" cx="294.47" cy="467.22" rx="9.73" ry="2.85" transform="translate(419.73 129.34) rotate(-10)"/><ellipse class="cls-28" cx="308.16" cy="544.86" rx="9.73" ry="2.85" transform="translate(406.46 132.89) rotate(-10)"/><ellipse class="cls-28" cx="269.02" cy="483.43" rx="9.73" ry="2.85" transform="translate(215.11 497.62) rotate(-55)"/><ellipse class="cls-28" cx="333.61" cy="528.65" rx="9.73" ry="2.85" transform="translate(205.6 569.81) rotate(-55)"/><ellipse class="cls-28" cx="262.49" cy="512.88" rx="2.85" ry="9.73" transform="translate(411.31 124.48) rotate(-10)"/><ellipse class="cls-28" cx="340.14" cy="499.19" rx="2.85" ry="9.73" transform="translate(414.87 137.75) rotate(-10)"/><ellipse class="cls-28" cx="278.71" cy="538.33" rx="2.85" ry="9.73" transform="translate(174.26 528.96) rotate(-55)"/><ellipse class="cls-28" cx="323.93" cy="473.75" rx="2.85" ry="9.73" transform="translate(246.45 538.46) rotate(-55)"/><polygon class="cls-10" points="1251.41 349.66 1229.87 324.34 1232.5 339.22 1253.3 364.46 1251.41 349.66"/><rect class="cls-10" x="492.28" y="274.34" width="244.37" height="15.11" transform="translate(1764.94 523.91) rotate(170)"/><path class="cls-23" d="M739.05,104.78c-1.7,9.47-7.42,31.94-9.82,36.89s-10.17.28-13.84-3-10.1-14.28-11.23-19.79l1-25.57,12.71-12.43,9.75,4.38Z" transform="translate(496.39 71.1)"/><path class="cls-10" d="M751.34,97.72c5.15-6.36,4.09-15-7.21-15.4s-10-2-12.39-8.82-8.59-11.75-15.37-9.07-8.29,8.19-15,6.4c-9.26-2.47-14.32,11.92-7.26,18.13s4.52,7.07,4.1,11,6.35,12.15,4.37,19.21c1.86,1,4.1,2.12,5.37,0s2.4-8.9,2.69-13,3.67-3.68,4.38,0,.14,5.38.14,5.38l1.69.83c.43-5.79-2.12-12.29,1.27-11.86s5.37-.15,3.46-3.82,1.9-4.65,6.85-3.11,9.47,8.34,10.6,11.16C742.3,105.21,748.94,100.69,751.34,97.72Z" transform="translate(496.39 71.1)"/><path class="cls-29" d="M719.31,144.64c-3.85,1.34-16.15-3.49-21.3-20.19-19.84,3.26-41.6,21.16-47,27.94s73.17,30.79,93.79,30.51C743.15,165.67,732.27,150.39,719.31,144.64Z" transform="translate(496.39 71.1)"/><path class="cls-29" d="M744.84,182.9c2,11.3,2.68,19.49,2.68,19.49L721.6,223.86,704.16,171Z" transform="translate(496.39 71.1)"/><path class="cls-10" d="M817.31,142l-8.33-.7a4.24,4.24,0,0,0-3.69,1.59L785.16,168a4.23,4.23,0,0,0-.93,3l.7,9.65a1.7,1.7,0,0,0,3,1l30.54-36.86A1.7,1.7,0,0,0,817.31,142Z" transform="translate(496.39 71.1)"/><path class="cls-15" d="M731.85,332.07c-2.55-16.39-4.49-45.81-3.11-71.48s20.73-77.11-9.43-115.95c0,0-16.79-3.38-21.3-20.19-4.55.82-28.16,6.65-43.72,23.7-6.38,18.15,20.79,39.28,14.38,74.92-7.43,41.29-15.9,90.19-17.89,109C668,333.76,710.12,338,731.85,332.07Z" transform="translate(496.39 71.1)"/><path class="cls-12" d="M629.72,582.28l-4.91-2.06a25,25,0,0,1-9-6.39s-4.61-5.51-6.21-6.94c-3.91.13-10.5-3.52-11.21-4.62-2.15.32-5.55,6.71-5.55,6.71a4.61,4.61,0,0,0,2.27,6.87l21.62,7.92a25,25,0,0,0,8.61,1.52h3.77A1.56,1.56,0,0,0,629.72,582.28Z" transform="translate(496.39 71.1)"/><path class="cls-10" d="M500.83,299.76H760a0,0,0,0,1,0,0v16.1a0,0,0,0,1,0,0H500.83A3.83,3.83,0,0,1,497,312V303.6A3.83,3.83,0,0,1,500.83,299.76Z" transform="translate(1797.32 572.92) rotate(170)"/><path class="cls-23" d="M636.89,193.63c-4.71,15-5.7,52.74,16.36,62.72,19.18,8.68,75.89,17.74,88,18-1.64-2-3-3.65-3-3.65a6.06,6.06,0,0,1,5.07-5.83l5.24,6.08c1.65-3.39,1.82-14-5.71-18.13s-16,3.72-19.45,4.28c-14-3.2-39.22-19.57-54.48-19.76-1.13-16.2,7-20.62,6.78-37.86C668.08,195.23,641,193.12,636.89,193.63Z" transform="translate(496.39 71.1)"/><path class="cls-30" d="M673.85,213.13c-11.35,3.67-32.49-1.42-39.72-5-.82-23.74,4.51-53.35,31.32-69.69C678.65,137.55,694.71,170.28,673.85,213.13Z" transform="translate(496.39 71.1)"/><path class="cls-10" d="M783.84,566.43h0a.89.89,0,0,0,.78-.46l2.72-5-2,.35-2.31,3.74A.89.89,0,0,0,783.84,566.43Z" transform="translate(496.39 71.1)"/><path class="cls-10" d="M609.36,573.66h0a.89.89,0,0,0,.79.44l5.68-.17-1.29-1.51-4.39-.1A.89.89,0,0,0,609.36,573.66Z" transform="translate(496.39 71.1)"/><path class="cls-10" d="M606.14,570h0a.89.89,0,0,0,.79.44l5.68-.17-1.29-1.51-4.4-.09A.88.88,0,0,0,606.14,570Z" transform="translate(496.39 71.1)"/><path class="cls-10" d="M779.16,567.21h0a.86.86,0,0,0,.78-.46l2.73-5-1.95.35-2.31,3.74A.89.89,0,0,0,779.16,567.21Z" transform="translate(496.39 71.1)"/><path class="cls-10" d="M630.82,583.38c-.29-3.36-6.11-5.15-9.21-5.38-3.93-.28-10.59,2-10.59,2,.6,1.22,9.83,4,12.63,4A68.53,68.53,0,0,0,630.82,583.38Z" transform="translate(496.39 71.1)"/><path class="cls-5" d="M630.82,583.38c-2.31.12-9,.5-15.26-1.58s-23.47-11.26-23.47-11.26a7.3,7.3,0,0,0-1.44,3c7.05,5.06,23.31,10.81,25.67,11.26a37.06,37.06,0,0,0,7.17.63h7.07Z" transform="translate(496.39 71.1)"/><path class="cls-10" d="M598.4,562.27l1.7,12.43-8-4.16C592.87,566.87,595.65,562.55,598.4,562.27Z" transform="translate(496.39 71.1)"/><rect class="cls-27" x="26.1" y="273.73" width="446.36" height="6.48" rx="3.24" transform="translate(452.08 118.6) rotate(-10)"/><rect class="cls-27" x="31.13" y="302.25" width="446.36" height="6.48" rx="3.24" transform="translate(447.2 119.9) rotate(-10)"/><rect class="cls-27" x="36.16" y="330.77" width="446.36" height="6.48" rx="3.24" transform="translate(442.33 121.21) rotate(-10)"/><rect class="cls-27" x="41.19" y="359.28" width="446.36" height="6.48" rx="3.24" transform="matrix(0.98, -0.17, 0.17, 0.98, 437.45, 122.52)"/><path class="cls-23" d="M785.37,167.76s.45-4.71.81-7.64a3.8,3.8,0,0,1,2.08-2.92c1.56-.77,3.26-1.57,4.73-2.24a2.72,2.72,0,0,1,3.85,2.47h0a2.7,2.7,0,0,1-1.59,2.47l-5.67,2.59Z" transform="translate(496.39 71.1)"/><path class="cls-29" d="M866.17,60.05A52.5,52.5,0,1,0,768,85.87h0c6.75,13.4,29.22,34.4,45.72,43.22,16.49-8.82,39-29.82,45.71-43.22h0A52.19,52.19,0,0,0,866.17,60.05Z" transform="translate(496.39 71.1)"/><path class="cls-15" d="M859.39,85.88h0a52.49,52.49,0,0,0-45.7-78.31V129.1C830.17,120.28,852.64,99.28,859.39,85.88Z" transform="translate(496.39 71.1)"/><circle class="cls-10" cx="1310.06" cy="131.16" r="46.44"/><circle class="cls-15" cx="1310.06" cy="131.16" r="39.84"/><polygon class="cls-10" points="1294.13 136.24 1281.07 136.24 1281.07 163.82 1294.13 170.52 1294.13 136.24"/><polygon class="cls-10" points="1312.08 136.35 1302.85 145.58 1325.91 168.65 1337.52 161.8 1312.08 136.35"/><path class="cls-10" d="M1303.24,99.29h27.32a3.72,3.72,0,0,1,3.72,3.72v27.32a22.17,22.17,0,0,1-22.17,22.17h-31a0,0,0,0,1,0,0v-31a22.17,22.17,0,0,1,22.17-22.17Z"/><path class="cls-12" d="M820.74,58.2,807.88,45.34a2.4,2.4,0,0,1,1.7-4.1h13.35a1.91,1.91,0,0,1,1.91,1.91V56.51A2.4,2.4,0,0,1,820.74,58.2Z" transform="translate(496.39 71.1)"/><path class="cls-2" d="M280.82,18.7C276.07,14.82,261.39,12,244,12a136.35,136.35,0,0,0-20.37,1.43c-8-4-25-6.85-44.57-6.85-4,0-7.91.12-11.65.34-9.7-8.55-37-14.72-69.3-14.72C60.52-7.8,29.57.58,25.5,11.35c-2.63-.12-5.36-.19-8.15-.19-19.35,0-35.56,3.22-39.86,7.54Z" transform="translate(496.39 71.1)"/><circle class="cls-6" cx="68.2" cy="446.31" r="14.43"/><circle class="cls-6" cx="87.76" cy="451.93" r="8.8"/><circle class="cls-6" cx="42.86" cy="444.93" r="15.8"/><circle class="cls-6" cx="25.85" cy="449.73" r="11"/><rect class="cls-6" x="25.85" y="451.93" width="61.91" height="8.8"/><circle class="cls-6" cx="148.93" cy="441.48" r="19.26"/><circle class="cls-6" cx="175.04" cy="438.73" r="21.83"/><circle class="cls-6" cx="115.1" cy="439.64" r="21.09"/><circle class="cls-6" cx="92.4" cy="446.05" r="14.69"/><rect class="cls-6" x="92.4" y="448.98" width="82.64" height="11.75"/><path class="cls-5" d="M-435.33,387.15c-9.54-11.19-9.62-20.78-.77-14.91s9.86,11.81,15.66.27,23.8-25.82,26.57-10.59,3,16.66,12.67,10.59,12.94-3.9,13.58,1.65,5.91,3.77,10.43,0,52.55-12.81,54.06,10.92-55.54,7.82-55.54,7.82Z" transform="translate(496.39 71.1)"/><path class="cls-13" d="M4.43,453.67H198.61a4.43,4.43,0,0,1,4.43,4.43v12a0,0,0,0,1,0,0H0a0,0,0,0,1,0,0v-12A4.43,4.43,0,0,1,4.43,453.67Z"/><rect class="cls-13" x="6.5" y="448.68" width="16.29" height="8.57" rx="2.07"/><rect class="cls-13" x="35.46" y="448.68" width="16.29" height="8.57" rx="2.07"/><rect class="cls-13" x="64.41" y="448.68" width="16.29" height="8.57" rx="2.07"/><rect class="cls-13" x="93.37" y="448.68" width="16.29" height="8.57" rx="2.07"/><rect class="cls-13" x="122.33" y="448.68" width="16.29" height="8.57" rx="2.07"/><rect class="cls-13" x="151.29" y="448.68" width="16.29" height="8.57" rx="2.07"/><rect class="cls-13" x="180.24" y="448.68" width="16.29" height="8.57" rx="2.07"/><circle class="cls-13" cx="30.18" cy="450.57" r="10.16"/><circle class="cls-13" cx="13.83" cy="453.22" r="8.84"/><circle class="cls-13" cx="42.02" cy="450.1" r="5.17"/><circle class="cls-13" cx="52.19" cy="449.74" r="9.33"/><circle class="cls-13" cx="64.57" cy="452.33" r="5.91"/><circle class="cls-13" cx="78.46" cy="451.5" r="9.24"/><circle class="cls-13" cx="91.53" cy="457.89" r="8.91"/><circle class="cls-13" cx="73.16" cy="449.89" r="4.96"/><circle class="cls-13" cx="97.05" cy="451.56" r="5.51"/><circle class="cls-13" cx="113.35" cy="451.84" r="8.71"/><circle class="cls-13" cx="106.46" cy="447.84" r="7.43"/><circle class="cls-13" cx="130.24" cy="453.96" r="7.91"/><circle class="cls-13" cx="122.62" cy="454.96" r="5.23"/><circle class="cls-13" cx="123.7" cy="448.35" r="4.61"/><circle class="cls-13" cx="141.41" cy="453.11" r="7.07"/><circle class="cls-13" cx="154.66" cy="451.01" r="9.54"/><circle class="cls-13" cx="167.69" cy="453.77" r="7.35"/><circle class="cls-13" cx="182.54" cy="452.5" r="9.37"/><circle class="cls-13" cx="191.36" cy="454" r="7.58"/></svg>