<svg id="Camada_1" data-name="Camada 1" xmlns="http://www.w3.org/2000/svg" viewBox="0 0 13.62 13.62"><defs><style>.cls-1{fill:#2b4748;}</style></defs><title>ison-search</title><path class="cls-1" d="M128.46,499a6.12,6.12,0,1,1,4.33-10.44h0A6.12,6.12,0,0,1,128.46,499Zm0-11.23a5.11,5.11,0,1,0,3.62,1.49A5.14,5.14,0,0,0,128.46,487.81Z" transform="translate(-122.34 -486.81)"/><path class="cls-1" d="M126.09,495.29a3.35,3.35,0,0,1,0-4.74l.71.71a2.35,2.35,0,0,0,0,3.33Z" transform="translate(-122.34 -486.81)"/><rect class="cls-1" x="133.52" y="496.24" width="1" height="4.49" transform="translate(-435.53 -246.11) rotate(-44.99)"/></svg>