<svg id="Camada_1" data-name="Camada 1" xmlns="http://www.w3.org/2000/svg" viewBox="0 0 16.73 16.73"><defs><style>.cls-1{fill:#fff;}</style></defs><title>icon-error</title><path class="cls-1" d="M3.88,532.7a8.36,8.36,0,1,1,8.36-8.36A8.37,8.37,0,0,1,3.88,532.7Zm0-15.72a7.36,7.36,0,1,0,7.36,7.36A7.37,7.37,0,0,0,3.88,517Z" transform="translate(4.48 -515.98)"/><rect class="cls-1" x="7.86" y="4.26" width="1" height="5.85"/><path class="cls-1" d="M3.88,528.94a1,1,0,1,1,1-1A1,1,0,0,1,3.88,528.94Zm0-1s0,0,0,0Z" transform="translate(4.48 -515.98)"/></svg>