<svg id="Camada_1" data-name="Camada 1" xmlns="http://www.w3.org/2000/svg" viewBox="0 0 44.6 52.68"><defs><style>.cls-1{fill:#aab500;}</style></defs><title>icon-notfound</title><path class="cls-1" d="M181.45,704.67l-.12-.06c-7.11-3.81-16.49-12.69-19.3-18.27l-.05-.09a22.3,22.3,0,1,1,38.92,0l0,.05c-2.81,5.58-12.2,14.46-19.31,18.27Zm-18.88-18.36c2.88,5.49,11.94,14,18.88,17.79,7-3.78,16.09-12.38,18.92-17.86h0l.07-.13a21.8,21.8,0,1,0-38,0l.12.21Z" transform="translate(-159.15 -653.09)"/><path class="cls-1" d="M181.47,691.47a16.08,16.08,0,1,1,6.14-1.22A16.11,16.11,0,0,1,181.47,691.47Zm0-31.74a15.65,15.65,0,1,0,14.49,9.66A15.55,15.55,0,0,0,181.43,659.73Z" transform="translate(-159.15 -653.09)"/><path class="cls-1" d="M183.36,687.29H178.5V683h4.86Zm-4.43-.43h4v-3.42h-4Zm4.46-6.11H178.5v-.21a6.64,6.64,0,0,1,.65-3.29,11.78,11.78,0,0,1,2.4-2.56,7.48,7.48,0,0,0,1.39-1.9,5.21,5.21,0,0,0,.51-2.35,3.83,3.83,0,0,0-.57-2.23,1.76,1.76,0,0,0-1.56-.77,1.73,1.73,0,0,0-1.36.67,3.12,3.12,0,0,0-.62,2v.21h-4.7l-.09-.31a6,6,0,0,1,1.86-4.87,7.25,7.25,0,0,1,4.92-1.66,7,7,0,0,1,5.16,1.86,6.85,6.85,0,0,1,1.88,5.07,7.25,7.25,0,0,1-1.05,3.8,10.32,10.32,0,0,1-2.62,2.92,3.43,3.43,0,0,0-1,1.4,6.28,6.28,0,0,0-.26,2Zm-4.46-.43h4a6.66,6.66,0,0,1,.28-1.94,3.93,3.93,0,0,1,1.17-1.58,9.89,9.89,0,0,0,2.53-2.82,6.79,6.79,0,0,0,1-3.57,6.46,6.46,0,0,0-1.75-4.76,6.62,6.62,0,0,0-4.86-1.74,6.74,6.74,0,0,0-4.63,1.56,5.54,5.54,0,0,0-1.72,4.42h3.95a3.39,3.39,0,0,1,.71-2.06,2.16,2.16,0,0,1,1.69-.82,2.19,2.19,0,0,1,1.91,1,4.17,4.17,0,0,1,.65,2.48,5.65,5.65,0,0,1-.56,2.54,8.18,8.18,0,0,1-1.48,2,11.67,11.67,0,0,0-2.32,2.46A6.1,6.1,0,0,0,178.93,680.32Z" transform="translate(-159.15 -653.09)"/><rect class="cls-1" x="12.42" y="52.18" width="19.76" height="0.5"/></svg>