<svg id="Camada_1" data-name="Camada 1" xmlns="http://www.w3.org/2000/svg" viewBox="0 0 16.73 16.72"><defs><style>.cls-1{fill:#2b4748;}</style></defs><title>icon-add</title><path class="cls-1" d="M389.42,692.4a.5.5,0,0,1-.5-.5V680.68a.5.5,0,0,1,1,0V691.9A.5.5,0,0,1,389.42,692.4Z" transform="translate(-381.06 -677.93)"/><path class="cls-1" d="M395,686.79H383.81a.5.5,0,0,1-.5-.5.5.5,0,0,1,.5-.5H395a.5.5,0,0,1,.5.5A.5.5,0,0,1,395,686.79Z" transform="translate(-381.06 -677.93)"/><path class="cls-1" d="M389.42,694.66a8.37,8.37,0,1,1,8.36-8.37A8.38,8.38,0,0,1,389.42,694.66Zm0-15.73a7.37,7.37,0,1,0,7.36,7.36A7.37,7.37,0,0,0,389.42,678.93Z" transform="translate(-381.06 -677.93)"/></svg>