<svg id="Camada_1" data-name="Camada 1" xmlns="http://www.w3.org/2000/svg" viewBox="0 0 169.05 53.78"><defs><style>.cls-1{fill:#2b4748;}.cls-2{fill:#d3d800;}.cls-3{fill:#fff;}.cls-4{fill:#c3c800;}.cls-5{fill:#00a583;}</style></defs><title>logo-mapadareciclagem</title><path class="cls-1" d="M119.6,628c0-2.59,0-4.17,0-5.2h4.26a24.17,24.17,0,0,1,.09,2.48,3.77,3.77,0,0,1,3.89-2.73v4.81c-2.61-.06-3.75.61-3.75,3.33v7.42H119.6Z" transform="translate(-119.56 -591.57)"/><path class="cls-1" d="M132.8,631.54c0,2,.2,3.52,1.58,3.52s1.43-1,1.48-1.72h4.25c-.11,1-.56,5.07-5.82,5.07-5.09,0-5.92-3.89-5.92-8,0-5.16,2.07-7.79,6-7.79,4.53,0,5.83,3.06,5.83,7.29,0,.52,0,1.36,0,1.68Zm3-2.82c0-1.49-.07-2.87-1.46-2.87s-1.53,1.46-1.53,2.87Z" transform="translate(-119.56 -591.57)"/><path class="cls-1" d="M152.83,632.68c-.06,2.17-.82,5.71-5.74,5.71-4.68,0-5.76-3.43-5.76-8s1.69-7.81,6-7.81c5,0,5.49,3.94,5.51,5.56h-4.36c0-1.14-.09-2.24-1.2-2.24s-1.44,1.12-1.44,4.48.3,4.69,1.41,4.69,1.29-1.11,1.35-2.36Z" transform="translate(-119.56 -591.57)"/><path class="cls-1" d="M154.16,622.82h4.45v15.31h-4.45Zm0-5.28h4.45v3.61h-4.45Z" transform="translate(-119.56 -591.57)"/><path class="cls-1" d="M171.66,632.68c0,2.17-.82,5.71-5.74,5.71-4.68,0-5.76-3.43-5.76-8s1.69-7.81,6-7.81c5,0,5.48,3.94,5.5,5.56h-4.35c0-1.14-.09-2.24-1.2-2.24s-1.45,1.12-1.45,4.48S165,635,166.09,635s1.28-1.11,1.35-2.36Z" transform="translate(-119.56 -591.57)"/><path class="cls-1" d="M172.94,638.13V617.54h4.45v20.59Z" transform="translate(-119.56 -591.57)"/><path class="cls-1" d="M190.24,634.36c0,1,.07,3,.12,3.77h-4a6.89,6.89,0,0,1-.18-1.33,3.87,3.87,0,0,1-3.42,1.59c-2.71,0-4.06-2.09-4.06-4.72,0-3.34,2.25-5,6-5,.45,0,.91,0,1.22,0v-1.49c0-.83-.12-1.53-1.21-1.53s-1.19.64-1.25,1.74h-4.17c.06-2.71,1.37-4.82,5.6-4.82,3.56,0,5.4,1.43,5.4,4.59Zm-4.31-2.88a5.7,5.7,0,0,0-.85,0c-1.54,0-2,.81-2,1.85s.37,1.65,1.32,1.65c1.31,0,1.55-1,1.55-2.74Z" transform="translate(-119.56 -591.57)"/><path class="cls-1" d="M203.79,636.76c0,4.39-1.3,6.88-6.23,6.88-4.39,0-5.54-2.41-5.6-4.54h4.35c.05.49.19,1.26,1.46,1.26s1.61-1,1.61-3.14v-1a3.28,3.28,0,0,1-3.15,1.65c-3.21,0-4.45-2.77-4.45-7.36,0-5.34,1.74-7.91,4.78-7.91,1.84,0,2.56.83,2.85,1.49,0-.38.11-.91.17-1.24h4.27c0,.93-.06,2.61-.06,4.8Zm-7.47-6.39c0,3,.51,4,1.58,4,1.28,0,1.52-1.24,1.52-4.36,0-2.66,0-3.92-1.46-3.92C196.89,626.09,196.32,627.12,196.32,630.37Z" transform="translate(-119.56 -591.57)"/><path class="cls-1" d="M209.75,631.54c0,2,.2,3.52,1.58,3.52s1.43-1,1.47-1.72h4.26c-.11,1-.56,5.07-5.82,5.07-5.09,0-5.92-3.89-5.92-8,0-5.16,2.07-7.79,6-7.79,4.52,0,5.82,3.06,5.82,7.29,0,.52,0,1.36,0,1.68Zm3-2.82c0-1.49-.06-2.87-1.45-2.87s-1.53,1.46-1.53,2.87Z" transform="translate(-119.56 -591.57)"/><path class="cls-1" d="M218.66,627.55c0-3,0-4.08,0-4.73h4.22a8.91,8.91,0,0,1,.13,1.4,3.76,3.76,0,0,1,3.28-1.65,3,3,0,0,1,3.07,1.86,4.22,4.22,0,0,1,3.72-1.86c2.39,0,3.86,1.46,3.86,4.61v11h-4.36V627.7c0-.93-.29-1.61-1.18-1.61s-1.37.74-1.37,2.24v9.8h-4.39v-10.4c0-1.11-.4-1.62-1.19-1.62-1,0-1.37.67-1.37,2.27v9.75h-4.39Z" transform="translate(-119.56 -591.57)"/><path class="cls-2" d="M152.33,605.47c0-2.86,0-3.82,0-4.49h2.89a14.63,14.63,0,0,1,.1,1.66,3.49,3.49,0,0,1,3.31-1.91,2.88,2.88,0,0,1,3.05,2.09,3.87,3.87,0,0,1,3.66-2.09c2,0,3.73,1,3.73,4.44V616h-3V605.63c0-1.3-.4-2.31-1.76-2.31-1.57,0-2.09,1.27-2.09,3.18V616h-3V605.69c0-1.53-.51-2.35-1.75-2.35-1.51,0-2.13,1.18-2.13,3.28V616h-3Z" transform="translate(-119.56 -591.57)"/><path class="cls-2" d="M180.91,612.89c0,.81.06,2.45.11,3.06h-2.75a10,10,0,0,1-.14-1.5,3.54,3.54,0,0,1-3.43,1.76c-2.88,0-4-2.28-4-4.4,0-3,2-4.88,5.86-4.88a13,13,0,0,1,1.34,0v-1.76c0-1-.15-2.14-1.83-2.14s-1.85,1.15-1.93,2.14H171.3c.06-2.18,1.09-4.48,4.92-4.48,3.11,0,4.69,1.44,4.69,4.26Zm-2.9-3.68a7.34,7.34,0,0,0-1.24-.07c-2.2,0-3,1-3,2.41a1.93,1.93,0,0,0,1.92,2.17c1.91,0,2.36-1.39,2.36-3.92Z" transform="translate(-119.56 -591.57)"/><path class="cls-2" d="M186.59,614.67v6.71h-3V605.32c0-2,0-3.4,0-4.34h2.9a15.1,15.1,0,0,1,.1,1.76,3.4,3.4,0,0,1,3.43-2c2.79,0,4.37,2.43,4.37,7.5,0,5.69-1.92,8-4.82,8A3,3,0,0,1,186.59,614.67Zm4.71-6.3c0-3.65-.79-5-2.42-5-1.94,0-2.38,1.84-2.38,5,0,3.47.23,5.34,2.32,5.34C190.48,613.63,191.3,611.79,191.3,608.37Z" transform="translate(-119.56 -591.57)"/><path class="cls-2" d="M205.71,612.89c0,.81.07,2.45.12,3.06h-2.75a8.71,8.71,0,0,1-.15-1.5,3.52,3.52,0,0,1-3.43,1.76c-2.87,0-4-2.28-4-4.4,0-3,2-4.88,5.86-4.88a12.89,12.89,0,0,1,1.34,0v-1.76c0-1-.15-2.14-1.82-2.14s-1.85,1.15-1.94,2.14h-2.87c0-2.18,1.08-4.48,4.92-4.48,3.11,0,4.68,1.44,4.68,4.26Zm-2.9-3.68a7.27,7.27,0,0,0-1.24-.07c-2.2,0-3,1-3,2.41a1.94,1.94,0,0,0,1.92,2.17c1.91,0,2.36-1.39,2.36-3.92Z" transform="translate(-119.56 -591.57)"/><path class="cls-3" d="M223.34,595.25v16.64c0,1.66,0,3.18,0,4.06h-2.91a17.42,17.42,0,0,1-.1-1.74c-.44,1.14-1.36,2-3.39,2-3.14,0-4.41-2.77-4.41-7.88,0-4.65,1.58-7.6,5-7.6,1.73,0,2.49.67,2.8,1.3v-6.78Zm-7.71,13.12c0,3.75.75,5.26,2.34,5.26,2,0,2.43-1.6,2.43-5.36s-.38-4.95-2.28-4.95C216.59,603.32,215.63,604.55,215.63,608.37Z" transform="translate(-119.56 -591.57)"/><path class="cls-3" d="M235.23,612.89c0,.81.07,2.45.12,3.06H232.6a8.71,8.71,0,0,1-.15-1.5,3.52,3.52,0,0,1-3.43,1.76c-2.87,0-4-2.28-4-4.4,0-3,2-4.88,5.86-4.88a12.89,12.89,0,0,1,1.34,0v-1.76c0-1-.15-2.14-1.82-2.14s-1.85,1.15-1.94,2.14h-2.87c.06-2.18,1.09-4.48,4.92-4.48,3.11,0,4.68,1.44,4.68,4.26Zm-2.9-3.68a7.27,7.27,0,0,0-1.24-.07c-2.2,0-3,1-3,2.41a1.94,1.94,0,0,0,1.93,2.17c1.9,0,2.35-1.39,2.35-3.92Z" transform="translate(-119.56 -591.57)"/><ellipse class="cls-1" cx="147.01" cy="52.55" rx="7.35" ry="1.23"/><path class="cls-4" d="M288.62,613.62a22.05,22.05,0,1,0-41.25,10.85h0c2.83,5.63,12.27,14.44,19.2,18.15,6.92-3.71,16.36-12.52,19.2-18.15h0A21.9,21.9,0,0,0,288.62,613.62Z" transform="translate(-119.56 -591.57)"/><path class="cls-2" d="M285.77,624.47h0a22,22,0,0,0-19.19-32.9v51C273.49,638.91,282.93,630.1,285.77,624.47Z" transform="translate(-119.56 -591.57)"/><circle class="cls-1" cx="147.01" cy="22.05" r="19.5"/><circle class="cls-2" cx="147.01" cy="22.05" r="16.73"/><polygon class="cls-1" points="140.31 24.18 134.83 24.18 134.83 35.77 140.31 38.58 140.31 24.18"/><polygon class="cls-1" points="147.85 24.23 143.97 28.11 153.66 37.8 158.54 34.92 147.85 24.23"/><path class="cls-1" d="M144.14,8.67h11.47a1.56,1.56,0,0,1,1.56,1.56V21.7A9.31,9.31,0,0,1,147.87,31h-13a0,0,0,0,1,0,0V18A9.31,9.31,0,0,1,144.14,8.67Z"/><path class="cls-5" d="M269.54,612.84l-5.41-5.4a1,1,0,0,1,.72-1.72h5.61a.8.8,0,0,1,.8.8v5.61A1,1,0,0,1,269.54,612.84Z" transform="translate(-119.56 -591.57)"/></svg>